%FSLAX45Y45*%
G04 Gerber Fmt 4.5, Leading zero omitted, Abs format (unit mm)*
G04 Created by KiCad (PCBNEW (5.1.10)-1) date 2021-10-14 15:07:15*
%MOMM*%
%LPD*%
G01*
G04 APERTURE LIST*
%TA.AperFunction,Profile*%
%ADD10C,0.100000*%
%TD*%
%ADD11C,0.200000*%
%ADD12C,0.300000*%
G04 APERTURE END LIST*
D10*
X15000000Y-5000000D02*
X15000000Y-15000000D01*
X5000000Y-5000000D02*
X15000000Y-5000000D01*
X5000000Y-15000000D02*
X5000000Y-5000000D01*
X15000000Y-15000000D02*
X5000000Y-15000000D01*
D11*
X11795000Y-5265000D02*
X11955000Y-5425000D01*
X11955000Y-5265000D02*
X11795000Y-5425000D01*
X12295000Y-5765000D02*
X12455000Y-5925000D01*
X12455000Y-5765000D02*
X12295000Y-5925000D01*
X12795000Y-5265000D02*
X12955000Y-5425000D01*
X12955000Y-5265000D02*
X12795000Y-5425000D01*
X13040000Y-5265000D02*
X13200000Y-5425000D01*
X13200000Y-5265000D02*
X13040000Y-5425000D01*
X13540000Y-5765000D02*
X13700000Y-5925000D01*
X13700000Y-5765000D02*
X13540000Y-5925000D01*
X14040000Y-5265000D02*
X14200000Y-5425000D01*
X14200000Y-5265000D02*
X14040000Y-5425000D01*
X6986500Y-12965000D02*
G75*
G03*
X6986500Y-12965000I-119500J0D01*
G01*
X5575000Y-12965000D02*
X5575000Y-13215000D01*
X5450000Y-13090000D02*
X5700000Y-13090000D01*
X5575000Y-14585000D02*
X5575000Y-14835000D01*
X5450000Y-14710000D02*
X5700000Y-14710000D01*
X5760000Y-5540000D02*
X5760000Y-5790000D01*
X5635000Y-5665000D02*
X5885000Y-5665000D01*
X6260000Y-14390000D02*
X6260000Y-14640000D01*
X6135000Y-14515000D02*
X6385000Y-14515000D01*
X14510000Y-5590000D02*
X14510000Y-5840000D01*
X14385000Y-5715000D02*
X14635000Y-5715000D01*
X14590400Y-7928900D02*
X14590400Y-8178900D01*
X14465400Y-8053900D02*
X14715400Y-8053900D01*
X14660000Y-14390000D02*
X14660000Y-14640000D01*
X14535000Y-14515000D02*
X14785000Y-14515000D01*
X7816977Y-14686977D02*
X7816977Y-14443023D01*
X7573023Y-14443023D01*
X7573023Y-14686977D01*
X7816977Y-14686977D01*
X13336977Y-13086977D02*
X13336977Y-12843023D01*
X13093023Y-12843023D01*
X13093023Y-13086977D01*
X13336977Y-13086977D01*
D12*
X5281428Y-15470714D02*
X5281428Y-15170714D01*
X5352857Y-15170714D01*
X5395714Y-15185000D01*
X5424286Y-15213571D01*
X5438571Y-15242143D01*
X5452857Y-15299286D01*
X5452857Y-15342143D01*
X5438571Y-15399286D01*
X5424286Y-15427857D01*
X5395714Y-15456429D01*
X5352857Y-15470714D01*
X5281428Y-15470714D01*
X5581428Y-15470714D02*
X5581428Y-15270714D01*
X5581428Y-15327857D02*
X5595714Y-15299286D01*
X5610000Y-15285000D01*
X5638571Y-15270714D01*
X5667143Y-15270714D01*
X5767143Y-15470714D02*
X5767143Y-15270714D01*
X5767143Y-15170714D02*
X5752857Y-15185000D01*
X5767143Y-15199286D01*
X5781428Y-15185000D01*
X5767143Y-15170714D01*
X5767143Y-15199286D01*
X5952857Y-15470714D02*
X5924286Y-15456429D01*
X5910000Y-15427857D01*
X5910000Y-15170714D01*
X6110000Y-15470714D02*
X6081428Y-15456429D01*
X6067143Y-15427857D01*
X6067143Y-15170714D01*
X6452857Y-15470714D02*
X6452857Y-15170714D01*
X6552857Y-15385000D01*
X6652857Y-15170714D01*
X6652857Y-15470714D01*
X6924286Y-15470714D02*
X6924286Y-15313571D01*
X6910000Y-15285000D01*
X6881428Y-15270714D01*
X6824286Y-15270714D01*
X6795714Y-15285000D01*
X6924286Y-15456429D02*
X6895714Y-15470714D01*
X6824286Y-15470714D01*
X6795714Y-15456429D01*
X6781428Y-15427857D01*
X6781428Y-15399286D01*
X6795714Y-15370714D01*
X6824286Y-15356429D01*
X6895714Y-15356429D01*
X6924286Y-15342143D01*
X7067143Y-15270714D02*
X7067143Y-15570714D01*
X7067143Y-15285000D02*
X7095714Y-15270714D01*
X7152857Y-15270714D01*
X7181428Y-15285000D01*
X7195714Y-15299286D01*
X7210000Y-15327857D01*
X7210000Y-15413571D01*
X7195714Y-15442143D01*
X7181428Y-15456429D01*
X7152857Y-15470714D01*
X7095714Y-15470714D01*
X7067143Y-15456429D01*
X7338571Y-15442143D02*
X7352857Y-15456429D01*
X7338571Y-15470714D01*
X7324286Y-15456429D01*
X7338571Y-15442143D01*
X7338571Y-15470714D01*
X7338571Y-15285000D02*
X7352857Y-15299286D01*
X7338571Y-15313571D01*
X7324286Y-15299286D01*
X7338571Y-15285000D01*
X7338571Y-15313571D01*
X4835000Y-15885000D02*
X4995000Y-16045000D01*
X4995000Y-15885000D02*
X4835000Y-16045000D01*
X5438571Y-16100714D02*
X5267143Y-16100714D01*
X5352857Y-16100714D02*
X5352857Y-15800714D01*
X5324286Y-15843571D01*
X5295714Y-15872143D01*
X5267143Y-15886429D01*
X5567143Y-16072143D02*
X5581428Y-16086429D01*
X5567143Y-16100714D01*
X5552857Y-16086429D01*
X5567143Y-16072143D01*
X5567143Y-16100714D01*
X5838571Y-15800714D02*
X5781428Y-15800714D01*
X5752857Y-15815000D01*
X5738571Y-15829286D01*
X5710000Y-15872143D01*
X5695714Y-15929286D01*
X5695714Y-16043571D01*
X5710000Y-16072143D01*
X5724286Y-16086429D01*
X5752857Y-16100714D01*
X5810000Y-16100714D01*
X5838571Y-16086429D01*
X5852857Y-16072143D01*
X5867143Y-16043571D01*
X5867143Y-15972143D01*
X5852857Y-15943571D01*
X5838571Y-15929286D01*
X5810000Y-15915000D01*
X5752857Y-15915000D01*
X5724286Y-15929286D01*
X5710000Y-15943571D01*
X5695714Y-15972143D01*
X6052857Y-15800714D02*
X6081428Y-15800714D01*
X6110000Y-15815000D01*
X6124286Y-15829286D01*
X6138571Y-15857857D01*
X6152857Y-15915000D01*
X6152857Y-15986429D01*
X6138571Y-16043571D01*
X6124286Y-16072143D01*
X6110000Y-16086429D01*
X6081428Y-16100714D01*
X6052857Y-16100714D01*
X6024286Y-16086429D01*
X6010000Y-16072143D01*
X5995714Y-16043571D01*
X5981428Y-15986429D01*
X5981428Y-15915000D01*
X5995714Y-15857857D01*
X6010000Y-15829286D01*
X6024286Y-15815000D01*
X6052857Y-15800714D01*
X6338571Y-15800714D02*
X6367143Y-15800714D01*
X6395714Y-15815000D01*
X6410000Y-15829286D01*
X6424286Y-15857857D01*
X6438571Y-15915000D01*
X6438571Y-15986429D01*
X6424286Y-16043571D01*
X6410000Y-16072143D01*
X6395714Y-16086429D01*
X6367143Y-16100714D01*
X6338571Y-16100714D01*
X6310000Y-16086429D01*
X6295714Y-16072143D01*
X6281428Y-16043571D01*
X6267143Y-15986429D01*
X6267143Y-15915000D01*
X6281428Y-15857857D01*
X6295714Y-15829286D01*
X6310000Y-15815000D01*
X6338571Y-15800714D01*
X6567143Y-16100714D02*
X6567143Y-15900714D01*
X6567143Y-15929286D02*
X6581428Y-15915000D01*
X6610000Y-15900714D01*
X6652857Y-15900714D01*
X6681428Y-15915000D01*
X6695714Y-15943571D01*
X6695714Y-16100714D01*
X6695714Y-15943571D02*
X6710000Y-15915000D01*
X6738571Y-15900714D01*
X6781428Y-15900714D01*
X6810000Y-15915000D01*
X6824286Y-15943571D01*
X6824286Y-16100714D01*
X6967143Y-16100714D02*
X6967143Y-15900714D01*
X6967143Y-15929286D02*
X6981428Y-15915000D01*
X7010000Y-15900714D01*
X7052857Y-15900714D01*
X7081428Y-15915000D01*
X7095714Y-15943571D01*
X7095714Y-16100714D01*
X7095714Y-15943571D02*
X7110000Y-15915000D01*
X7138571Y-15900714D01*
X7181428Y-15900714D01*
X7210000Y-15915000D01*
X7224286Y-15943571D01*
X7224286Y-16100714D01*
X7810000Y-15786429D02*
X7552857Y-16172143D01*
X8195714Y-15800714D02*
X8224286Y-15800714D01*
X8252857Y-15815000D01*
X8267143Y-15829286D01*
X8281428Y-15857857D01*
X8295714Y-15915000D01*
X8295714Y-15986429D01*
X8281428Y-16043571D01*
X8267143Y-16072143D01*
X8252857Y-16086429D01*
X8224286Y-16100714D01*
X8195714Y-16100714D01*
X8167143Y-16086429D01*
X8152857Y-16072143D01*
X8138571Y-16043571D01*
X8124286Y-15986429D01*
X8124286Y-15915000D01*
X8138571Y-15857857D01*
X8152857Y-15829286D01*
X8167143Y-15815000D01*
X8195714Y-15800714D01*
X8424286Y-16072143D02*
X8438571Y-16086429D01*
X8424286Y-16100714D01*
X8410000Y-16086429D01*
X8424286Y-16072143D01*
X8424286Y-16100714D01*
X8624286Y-15800714D02*
X8652857Y-15800714D01*
X8681428Y-15815000D01*
X8695714Y-15829286D01*
X8710000Y-15857857D01*
X8724286Y-15915000D01*
X8724286Y-15986429D01*
X8710000Y-16043571D01*
X8695714Y-16072143D01*
X8681428Y-16086429D01*
X8652857Y-16100714D01*
X8624286Y-16100714D01*
X8595714Y-16086429D01*
X8581428Y-16072143D01*
X8567143Y-16043571D01*
X8552857Y-15986429D01*
X8552857Y-15915000D01*
X8567143Y-15857857D01*
X8581428Y-15829286D01*
X8595714Y-15815000D01*
X8624286Y-15800714D01*
X8981428Y-15800714D02*
X8924286Y-15800714D01*
X8895714Y-15815000D01*
X8881428Y-15829286D01*
X8852857Y-15872143D01*
X8838571Y-15929286D01*
X8838571Y-16043571D01*
X8852857Y-16072143D01*
X8867143Y-16086429D01*
X8895714Y-16100714D01*
X8952857Y-16100714D01*
X8981428Y-16086429D01*
X8995714Y-16072143D01*
X9010000Y-16043571D01*
X9010000Y-15972143D01*
X8995714Y-15943571D01*
X8981428Y-15929286D01*
X8952857Y-15915000D01*
X8895714Y-15915000D01*
X8867143Y-15929286D01*
X8852857Y-15943571D01*
X8838571Y-15972143D01*
X9110000Y-15800714D02*
X9295714Y-15800714D01*
X9195714Y-15915000D01*
X9238571Y-15915000D01*
X9267143Y-15929286D01*
X9281428Y-15943571D01*
X9295714Y-15972143D01*
X9295714Y-16043571D01*
X9281428Y-16072143D01*
X9267143Y-16086429D01*
X9238571Y-16100714D01*
X9152857Y-16100714D01*
X9124286Y-16086429D01*
X9110000Y-16072143D01*
X9481428Y-15800714D02*
X9510000Y-15800714D01*
X9538571Y-15815000D01*
X9552857Y-15829286D01*
X9567143Y-15857857D01*
X9581428Y-15915000D01*
X9581428Y-15986429D01*
X9567143Y-16043571D01*
X9552857Y-16072143D01*
X9538571Y-16086429D01*
X9510000Y-16100714D01*
X9481428Y-16100714D01*
X9452857Y-16086429D01*
X9438571Y-16072143D01*
X9424286Y-16043571D01*
X9410000Y-15986429D01*
X9410000Y-15915000D01*
X9424286Y-15857857D01*
X9438571Y-15829286D01*
X9452857Y-15815000D01*
X9481428Y-15800714D01*
X9695714Y-15800714D02*
X9695714Y-15857857D01*
X9810000Y-15800714D02*
X9810000Y-15857857D01*
X10252857Y-16215000D02*
X10238571Y-16200714D01*
X10210000Y-16157857D01*
X10195714Y-16129286D01*
X10181428Y-16086429D01*
X10167143Y-16015000D01*
X10167143Y-15957857D01*
X10181428Y-15886429D01*
X10195714Y-15843571D01*
X10210000Y-15815000D01*
X10238571Y-15772143D01*
X10252857Y-15757857D01*
X10495714Y-15800714D02*
X10438571Y-15800714D01*
X10410000Y-15815000D01*
X10395714Y-15829286D01*
X10367143Y-15872143D01*
X10352857Y-15929286D01*
X10352857Y-16043571D01*
X10367143Y-16072143D01*
X10381428Y-16086429D01*
X10410000Y-16100714D01*
X10467143Y-16100714D01*
X10495714Y-16086429D01*
X10510000Y-16072143D01*
X10524286Y-16043571D01*
X10524286Y-15972143D01*
X10510000Y-15943571D01*
X10495714Y-15929286D01*
X10467143Y-15915000D01*
X10410000Y-15915000D01*
X10381428Y-15929286D01*
X10367143Y-15943571D01*
X10352857Y-15972143D01*
X10881428Y-16100714D02*
X10881428Y-15800714D01*
X11010000Y-16100714D02*
X11010000Y-15943571D01*
X10995714Y-15915000D01*
X10967143Y-15900714D01*
X10924286Y-15900714D01*
X10895714Y-15915000D01*
X10881428Y-15929286D01*
X11195714Y-16100714D02*
X11167143Y-16086429D01*
X11152857Y-16072143D01*
X11138571Y-16043571D01*
X11138571Y-15957857D01*
X11152857Y-15929286D01*
X11167143Y-15915000D01*
X11195714Y-15900714D01*
X11238571Y-15900714D01*
X11267143Y-15915000D01*
X11281428Y-15929286D01*
X11295714Y-15957857D01*
X11295714Y-16043571D01*
X11281428Y-16072143D01*
X11267143Y-16086429D01*
X11238571Y-16100714D01*
X11195714Y-16100714D01*
X11467143Y-16100714D02*
X11438571Y-16086429D01*
X11424286Y-16057857D01*
X11424286Y-15800714D01*
X11695714Y-16086429D02*
X11667143Y-16100714D01*
X11610000Y-16100714D01*
X11581428Y-16086429D01*
X11567143Y-16057857D01*
X11567143Y-15943571D01*
X11581428Y-15915000D01*
X11610000Y-15900714D01*
X11667143Y-15900714D01*
X11695714Y-15915000D01*
X11710000Y-15943571D01*
X11710000Y-15972143D01*
X11567143Y-16000714D01*
X11824286Y-16086429D02*
X11852857Y-16100714D01*
X11910000Y-16100714D01*
X11938571Y-16086429D01*
X11952857Y-16057857D01*
X11952857Y-16043571D01*
X11938571Y-16015000D01*
X11910000Y-16000714D01*
X11867143Y-16000714D01*
X11838571Y-15986429D01*
X11824286Y-15957857D01*
X11824286Y-15943571D01*
X11838571Y-15915000D01*
X11867143Y-15900714D01*
X11910000Y-15900714D01*
X11938571Y-15915000D01*
X12052857Y-16215000D02*
X12067143Y-16200714D01*
X12095714Y-16157857D01*
X12110000Y-16129286D01*
X12124286Y-16086429D01*
X12138571Y-16015000D01*
X12138571Y-15957857D01*
X12124286Y-15886429D01*
X12110000Y-15843571D01*
X12095714Y-15815000D01*
X12067143Y-15772143D01*
X12052857Y-15757857D01*
X12595714Y-16215000D02*
X12581428Y-16200714D01*
X12552857Y-16157857D01*
X12538571Y-16129286D01*
X12524286Y-16086429D01*
X12510000Y-16015000D01*
X12510000Y-15957857D01*
X12524286Y-15886429D01*
X12538571Y-15843571D01*
X12552857Y-15815000D01*
X12581428Y-15772143D01*
X12595714Y-15757857D01*
X12710000Y-15900714D02*
X12710000Y-16100714D01*
X12710000Y-15929286D02*
X12724286Y-15915000D01*
X12752857Y-15900714D01*
X12795714Y-15900714D01*
X12824286Y-15915000D01*
X12838571Y-15943571D01*
X12838571Y-16100714D01*
X13024286Y-16100714D02*
X12995714Y-16086429D01*
X12981428Y-16072143D01*
X12967143Y-16043571D01*
X12967143Y-15957857D01*
X12981428Y-15929286D01*
X12995714Y-15915000D01*
X13024286Y-15900714D01*
X13067143Y-15900714D01*
X13095714Y-15915000D01*
X13110000Y-15929286D01*
X13124286Y-15957857D01*
X13124286Y-16043571D01*
X13110000Y-16072143D01*
X13095714Y-16086429D01*
X13067143Y-16100714D01*
X13024286Y-16100714D01*
X13210000Y-15900714D02*
X13324286Y-15900714D01*
X13252857Y-15800714D02*
X13252857Y-16057857D01*
X13267143Y-16086429D01*
X13295714Y-16100714D01*
X13324286Y-16100714D01*
X13652857Y-15900714D02*
X13652857Y-16200714D01*
X13652857Y-15915000D02*
X13681428Y-15900714D01*
X13738571Y-15900714D01*
X13767143Y-15915000D01*
X13781428Y-15929286D01*
X13795714Y-15957857D01*
X13795714Y-16043571D01*
X13781428Y-16072143D01*
X13767143Y-16086429D01*
X13738571Y-16100714D01*
X13681428Y-16100714D01*
X13652857Y-16086429D01*
X13967143Y-16100714D02*
X13938571Y-16086429D01*
X13924286Y-16057857D01*
X13924286Y-15800714D01*
X14210000Y-16100714D02*
X14210000Y-15943571D01*
X14195714Y-15915000D01*
X14167143Y-15900714D01*
X14110000Y-15900714D01*
X14081428Y-15915000D01*
X14210000Y-16086429D02*
X14181428Y-16100714D01*
X14110000Y-16100714D01*
X14081428Y-16086429D01*
X14067143Y-16057857D01*
X14067143Y-16029286D01*
X14081428Y-16000714D01*
X14110000Y-15986429D01*
X14181428Y-15986429D01*
X14210000Y-15972143D01*
X14310000Y-15900714D02*
X14424286Y-15900714D01*
X14352857Y-15800714D02*
X14352857Y-16057857D01*
X14367143Y-16086429D01*
X14395714Y-16100714D01*
X14424286Y-16100714D01*
X14638571Y-16086429D02*
X14610000Y-16100714D01*
X14552857Y-16100714D01*
X14524286Y-16086429D01*
X14510000Y-16057857D01*
X14510000Y-15943571D01*
X14524286Y-15915000D01*
X14552857Y-15900714D01*
X14610000Y-15900714D01*
X14638571Y-15915000D01*
X14652857Y-15943571D01*
X14652857Y-15972143D01*
X14510000Y-16000714D01*
X14910000Y-16100714D02*
X14910000Y-15800714D01*
X14910000Y-16086429D02*
X14881428Y-16100714D01*
X14824286Y-16100714D01*
X14795714Y-16086429D01*
X14781428Y-16072143D01*
X14767143Y-16043571D01*
X14767143Y-15957857D01*
X14781428Y-15929286D01*
X14795714Y-15915000D01*
X14824286Y-15900714D01*
X14881428Y-15900714D01*
X14910000Y-15915000D01*
X15024286Y-16215000D02*
X15038571Y-16200714D01*
X15067143Y-16157857D01*
X15081428Y-16129286D01*
X15095714Y-16086429D01*
X15110000Y-16015000D01*
X15110000Y-15957857D01*
X15095714Y-15886429D01*
X15081428Y-15843571D01*
X15067143Y-15815000D01*
X15038571Y-15772143D01*
X15024286Y-15757857D01*
X4995000Y-16361000D02*
G75*
G03*
X4995000Y-16361000I-119500J0D01*
G01*
X5267143Y-16225286D02*
X5281428Y-16211000D01*
X5310000Y-16196714D01*
X5381428Y-16196714D01*
X5410000Y-16211000D01*
X5424286Y-16225286D01*
X5438571Y-16253857D01*
X5438571Y-16282429D01*
X5424286Y-16325286D01*
X5252857Y-16496714D01*
X5438571Y-16496714D01*
X5567143Y-16468143D02*
X5581428Y-16482429D01*
X5567143Y-16496714D01*
X5552857Y-16482429D01*
X5567143Y-16468143D01*
X5567143Y-16496714D01*
X5681428Y-16196714D02*
X5867143Y-16196714D01*
X5767143Y-16311000D01*
X5810000Y-16311000D01*
X5838571Y-16325286D01*
X5852857Y-16339571D01*
X5867143Y-16368143D01*
X5867143Y-16439571D01*
X5852857Y-16468143D01*
X5838571Y-16482429D01*
X5810000Y-16496714D01*
X5724286Y-16496714D01*
X5695714Y-16482429D01*
X5681428Y-16468143D01*
X6010000Y-16496714D02*
X6067143Y-16496714D01*
X6095714Y-16482429D01*
X6110000Y-16468143D01*
X6138571Y-16425286D01*
X6152857Y-16368143D01*
X6152857Y-16253857D01*
X6138571Y-16225286D01*
X6124286Y-16211000D01*
X6095714Y-16196714D01*
X6038571Y-16196714D01*
X6010000Y-16211000D01*
X5995714Y-16225286D01*
X5981428Y-16253857D01*
X5981428Y-16325286D01*
X5995714Y-16353857D01*
X6010000Y-16368143D01*
X6038571Y-16382429D01*
X6095714Y-16382429D01*
X6124286Y-16368143D01*
X6138571Y-16353857D01*
X6152857Y-16325286D01*
X6338571Y-16196714D02*
X6367143Y-16196714D01*
X6395714Y-16211000D01*
X6410000Y-16225286D01*
X6424286Y-16253857D01*
X6438571Y-16311000D01*
X6438571Y-16382429D01*
X6424286Y-16439571D01*
X6410000Y-16468143D01*
X6395714Y-16482429D01*
X6367143Y-16496714D01*
X6338571Y-16496714D01*
X6310000Y-16482429D01*
X6295714Y-16468143D01*
X6281428Y-16439571D01*
X6267143Y-16382429D01*
X6267143Y-16311000D01*
X6281428Y-16253857D01*
X6295714Y-16225286D01*
X6310000Y-16211000D01*
X6338571Y-16196714D01*
X6567143Y-16496714D02*
X6567143Y-16296714D01*
X6567143Y-16325286D02*
X6581428Y-16311000D01*
X6610000Y-16296714D01*
X6652857Y-16296714D01*
X6681428Y-16311000D01*
X6695714Y-16339571D01*
X6695714Y-16496714D01*
X6695714Y-16339571D02*
X6710000Y-16311000D01*
X6738571Y-16296714D01*
X6781428Y-16296714D01*
X6810000Y-16311000D01*
X6824286Y-16339571D01*
X6824286Y-16496714D01*
X6967143Y-16496714D02*
X6967143Y-16296714D01*
X6967143Y-16325286D02*
X6981428Y-16311000D01*
X7010000Y-16296714D01*
X7052857Y-16296714D01*
X7081428Y-16311000D01*
X7095714Y-16339571D01*
X7095714Y-16496714D01*
X7095714Y-16339571D02*
X7110000Y-16311000D01*
X7138571Y-16296714D01*
X7181428Y-16296714D01*
X7210000Y-16311000D01*
X7224286Y-16339571D01*
X7224286Y-16496714D01*
X7810000Y-16182429D02*
X7552857Y-16568143D01*
X8195714Y-16196714D02*
X8224286Y-16196714D01*
X8252857Y-16211000D01*
X8267143Y-16225286D01*
X8281428Y-16253857D01*
X8295714Y-16311000D01*
X8295714Y-16382429D01*
X8281428Y-16439571D01*
X8267143Y-16468143D01*
X8252857Y-16482429D01*
X8224286Y-16496714D01*
X8195714Y-16496714D01*
X8167143Y-16482429D01*
X8152857Y-16468143D01*
X8138571Y-16439571D01*
X8124286Y-16382429D01*
X8124286Y-16311000D01*
X8138571Y-16253857D01*
X8152857Y-16225286D01*
X8167143Y-16211000D01*
X8195714Y-16196714D01*
X8424286Y-16468143D02*
X8438571Y-16482429D01*
X8424286Y-16496714D01*
X8410000Y-16482429D01*
X8424286Y-16468143D01*
X8424286Y-16496714D01*
X8624286Y-16196714D02*
X8652857Y-16196714D01*
X8681428Y-16211000D01*
X8695714Y-16225286D01*
X8710000Y-16253857D01*
X8724286Y-16311000D01*
X8724286Y-16382429D01*
X8710000Y-16439571D01*
X8695714Y-16468143D01*
X8681428Y-16482429D01*
X8652857Y-16496714D01*
X8624286Y-16496714D01*
X8595714Y-16482429D01*
X8581428Y-16468143D01*
X8567143Y-16439571D01*
X8552857Y-16382429D01*
X8552857Y-16311000D01*
X8567143Y-16253857D01*
X8581428Y-16225286D01*
X8595714Y-16211000D01*
X8624286Y-16196714D01*
X8867143Y-16496714D02*
X8924286Y-16496714D01*
X8952857Y-16482429D01*
X8967143Y-16468143D01*
X8995714Y-16425286D01*
X9010000Y-16368143D01*
X9010000Y-16253857D01*
X8995714Y-16225286D01*
X8981428Y-16211000D01*
X8952857Y-16196714D01*
X8895714Y-16196714D01*
X8867143Y-16211000D01*
X8852857Y-16225286D01*
X8838571Y-16253857D01*
X8838571Y-16325286D01*
X8852857Y-16353857D01*
X8867143Y-16368143D01*
X8895714Y-16382429D01*
X8952857Y-16382429D01*
X8981428Y-16368143D01*
X8995714Y-16353857D01*
X9010000Y-16325286D01*
X9267143Y-16296714D02*
X9267143Y-16496714D01*
X9195714Y-16182429D02*
X9124286Y-16396714D01*
X9310000Y-16396714D01*
X9581428Y-16496714D02*
X9410000Y-16496714D01*
X9495714Y-16496714D02*
X9495714Y-16196714D01*
X9467143Y-16239571D01*
X9438571Y-16268143D01*
X9410000Y-16282429D01*
X9695714Y-16196714D02*
X9695714Y-16253857D01*
X9810000Y-16196714D02*
X9810000Y-16253857D01*
X10252857Y-16611000D02*
X10238571Y-16596714D01*
X10210000Y-16553857D01*
X10195714Y-16525286D01*
X10181428Y-16482429D01*
X10167143Y-16411000D01*
X10167143Y-16353857D01*
X10181428Y-16282429D01*
X10195714Y-16239571D01*
X10210000Y-16211000D01*
X10238571Y-16168143D01*
X10252857Y-16153857D01*
X10524286Y-16496714D02*
X10352857Y-16496714D01*
X10438571Y-16496714D02*
X10438571Y-16196714D01*
X10410000Y-16239571D01*
X10381428Y-16268143D01*
X10352857Y-16282429D01*
X10881428Y-16496714D02*
X10881428Y-16196714D01*
X11010000Y-16496714D02*
X11010000Y-16339571D01*
X10995714Y-16311000D01*
X10967143Y-16296714D01*
X10924286Y-16296714D01*
X10895714Y-16311000D01*
X10881428Y-16325286D01*
X11195714Y-16496714D02*
X11167143Y-16482429D01*
X11152857Y-16468143D01*
X11138571Y-16439571D01*
X11138571Y-16353857D01*
X11152857Y-16325286D01*
X11167143Y-16311000D01*
X11195714Y-16296714D01*
X11238571Y-16296714D01*
X11267143Y-16311000D01*
X11281428Y-16325286D01*
X11295714Y-16353857D01*
X11295714Y-16439571D01*
X11281428Y-16468143D01*
X11267143Y-16482429D01*
X11238571Y-16496714D01*
X11195714Y-16496714D01*
X11467143Y-16496714D02*
X11438571Y-16482429D01*
X11424286Y-16453857D01*
X11424286Y-16196714D01*
X11695714Y-16482429D02*
X11667143Y-16496714D01*
X11610000Y-16496714D01*
X11581428Y-16482429D01*
X11567143Y-16453857D01*
X11567143Y-16339571D01*
X11581428Y-16311000D01*
X11610000Y-16296714D01*
X11667143Y-16296714D01*
X11695714Y-16311000D01*
X11710000Y-16339571D01*
X11710000Y-16368143D01*
X11567143Y-16396714D01*
X11810000Y-16611000D02*
X11824286Y-16596714D01*
X11852857Y-16553857D01*
X11867143Y-16525286D01*
X11881428Y-16482429D01*
X11895714Y-16411000D01*
X11895714Y-16353857D01*
X11881428Y-16282429D01*
X11867143Y-16239571D01*
X11852857Y-16211000D01*
X11824286Y-16168143D01*
X11810000Y-16153857D01*
X12352857Y-16611000D02*
X12338571Y-16596714D01*
X12310000Y-16553857D01*
X12295714Y-16525286D01*
X12281428Y-16482429D01*
X12267143Y-16411000D01*
X12267143Y-16353857D01*
X12281428Y-16282429D01*
X12295714Y-16239571D01*
X12310000Y-16211000D01*
X12338571Y-16168143D01*
X12352857Y-16153857D01*
X12467143Y-16296714D02*
X12467143Y-16496714D01*
X12467143Y-16325286D02*
X12481428Y-16311000D01*
X12510000Y-16296714D01*
X12552857Y-16296714D01*
X12581428Y-16311000D01*
X12595714Y-16339571D01*
X12595714Y-16496714D01*
X12781428Y-16496714D02*
X12752857Y-16482429D01*
X12738571Y-16468143D01*
X12724286Y-16439571D01*
X12724286Y-16353857D01*
X12738571Y-16325286D01*
X12752857Y-16311000D01*
X12781428Y-16296714D01*
X12824286Y-16296714D01*
X12852857Y-16311000D01*
X12867143Y-16325286D01*
X12881428Y-16353857D01*
X12881428Y-16439571D01*
X12867143Y-16468143D01*
X12852857Y-16482429D01*
X12824286Y-16496714D01*
X12781428Y-16496714D01*
X12967143Y-16296714D02*
X13081428Y-16296714D01*
X13010000Y-16196714D02*
X13010000Y-16453857D01*
X13024286Y-16482429D01*
X13052857Y-16496714D01*
X13081428Y-16496714D01*
X13410000Y-16296714D02*
X13410000Y-16596714D01*
X13410000Y-16311000D02*
X13438571Y-16296714D01*
X13495714Y-16296714D01*
X13524286Y-16311000D01*
X13538571Y-16325286D01*
X13552857Y-16353857D01*
X13552857Y-16439571D01*
X13538571Y-16468143D01*
X13524286Y-16482429D01*
X13495714Y-16496714D01*
X13438571Y-16496714D01*
X13410000Y-16482429D01*
X13724286Y-16496714D02*
X13695714Y-16482429D01*
X13681428Y-16453857D01*
X13681428Y-16196714D01*
X13967143Y-16496714D02*
X13967143Y-16339571D01*
X13952857Y-16311000D01*
X13924286Y-16296714D01*
X13867143Y-16296714D01*
X13838571Y-16311000D01*
X13967143Y-16482429D02*
X13938571Y-16496714D01*
X13867143Y-16496714D01*
X13838571Y-16482429D01*
X13824286Y-16453857D01*
X13824286Y-16425286D01*
X13838571Y-16396714D01*
X13867143Y-16382429D01*
X13938571Y-16382429D01*
X13967143Y-16368143D01*
X14067143Y-16296714D02*
X14181428Y-16296714D01*
X14110000Y-16196714D02*
X14110000Y-16453857D01*
X14124286Y-16482429D01*
X14152857Y-16496714D01*
X14181428Y-16496714D01*
X14395714Y-16482429D02*
X14367143Y-16496714D01*
X14310000Y-16496714D01*
X14281428Y-16482429D01*
X14267143Y-16453857D01*
X14267143Y-16339571D01*
X14281428Y-16311000D01*
X14310000Y-16296714D01*
X14367143Y-16296714D01*
X14395714Y-16311000D01*
X14410000Y-16339571D01*
X14410000Y-16368143D01*
X14267143Y-16396714D01*
X14667143Y-16496714D02*
X14667143Y-16196714D01*
X14667143Y-16482429D02*
X14638571Y-16496714D01*
X14581428Y-16496714D01*
X14552857Y-16482429D01*
X14538571Y-16468143D01*
X14524286Y-16439571D01*
X14524286Y-16353857D01*
X14538571Y-16325286D01*
X14552857Y-16311000D01*
X14581428Y-16296714D01*
X14638571Y-16296714D01*
X14667143Y-16311000D01*
X14781428Y-16611000D02*
X14795714Y-16596714D01*
X14824286Y-16553857D01*
X14838571Y-16525286D01*
X14852857Y-16482429D01*
X14867143Y-16411000D01*
X14867143Y-16353857D01*
X14852857Y-16282429D01*
X14838571Y-16239571D01*
X14824286Y-16211000D01*
X14795714Y-16168143D01*
X14781428Y-16153857D01*
X4870000Y-16632000D02*
X4870000Y-16882000D01*
X4745000Y-16757000D02*
X4995000Y-16757000D01*
X5267143Y-16621286D02*
X5281428Y-16607000D01*
X5310000Y-16592714D01*
X5381428Y-16592714D01*
X5410000Y-16607000D01*
X5424286Y-16621286D01*
X5438571Y-16649857D01*
X5438571Y-16678429D01*
X5424286Y-16721286D01*
X5252857Y-16892714D01*
X5438571Y-16892714D01*
X5567143Y-16864143D02*
X5581428Y-16878429D01*
X5567143Y-16892714D01*
X5552857Y-16878429D01*
X5567143Y-16864143D01*
X5567143Y-16892714D01*
X5852857Y-16592714D02*
X5710000Y-16592714D01*
X5695714Y-16735571D01*
X5710000Y-16721286D01*
X5738571Y-16707000D01*
X5810000Y-16707000D01*
X5838571Y-16721286D01*
X5852857Y-16735571D01*
X5867143Y-16764143D01*
X5867143Y-16835572D01*
X5852857Y-16864143D01*
X5838571Y-16878429D01*
X5810000Y-16892714D01*
X5738571Y-16892714D01*
X5710000Y-16878429D01*
X5695714Y-16864143D01*
X6052857Y-16592714D02*
X6081428Y-16592714D01*
X6110000Y-16607000D01*
X6124286Y-16621286D01*
X6138571Y-16649857D01*
X6152857Y-16707000D01*
X6152857Y-16778429D01*
X6138571Y-16835572D01*
X6124286Y-16864143D01*
X6110000Y-16878429D01*
X6081428Y-16892714D01*
X6052857Y-16892714D01*
X6024286Y-16878429D01*
X6010000Y-16864143D01*
X5995714Y-16835572D01*
X5981428Y-16778429D01*
X5981428Y-16707000D01*
X5995714Y-16649857D01*
X6010000Y-16621286D01*
X6024286Y-16607000D01*
X6052857Y-16592714D01*
X6338571Y-16592714D02*
X6367143Y-16592714D01*
X6395714Y-16607000D01*
X6410000Y-16621286D01*
X6424286Y-16649857D01*
X6438571Y-16707000D01*
X6438571Y-16778429D01*
X6424286Y-16835572D01*
X6410000Y-16864143D01*
X6395714Y-16878429D01*
X6367143Y-16892714D01*
X6338571Y-16892714D01*
X6310000Y-16878429D01*
X6295714Y-16864143D01*
X6281428Y-16835572D01*
X6267143Y-16778429D01*
X6267143Y-16707000D01*
X6281428Y-16649857D01*
X6295714Y-16621286D01*
X6310000Y-16607000D01*
X6338571Y-16592714D01*
X6567143Y-16892714D02*
X6567143Y-16692714D01*
X6567143Y-16721286D02*
X6581428Y-16707000D01*
X6610000Y-16692714D01*
X6652857Y-16692714D01*
X6681428Y-16707000D01*
X6695714Y-16735571D01*
X6695714Y-16892714D01*
X6695714Y-16735571D02*
X6710000Y-16707000D01*
X6738571Y-16692714D01*
X6781428Y-16692714D01*
X6810000Y-16707000D01*
X6824286Y-16735571D01*
X6824286Y-16892714D01*
X6967143Y-16892714D02*
X6967143Y-16692714D01*
X6967143Y-16721286D02*
X6981428Y-16707000D01*
X7010000Y-16692714D01*
X7052857Y-16692714D01*
X7081428Y-16707000D01*
X7095714Y-16735571D01*
X7095714Y-16892714D01*
X7095714Y-16735571D02*
X7110000Y-16707000D01*
X7138571Y-16692714D01*
X7181428Y-16692714D01*
X7210000Y-16707000D01*
X7224286Y-16735571D01*
X7224286Y-16892714D01*
X7810000Y-16578429D02*
X7552857Y-16964143D01*
X8195714Y-16592714D02*
X8224286Y-16592714D01*
X8252857Y-16607000D01*
X8267143Y-16621286D01*
X8281428Y-16649857D01*
X8295714Y-16707000D01*
X8295714Y-16778429D01*
X8281428Y-16835572D01*
X8267143Y-16864143D01*
X8252857Y-16878429D01*
X8224286Y-16892714D01*
X8195714Y-16892714D01*
X8167143Y-16878429D01*
X8152857Y-16864143D01*
X8138571Y-16835572D01*
X8124286Y-16778429D01*
X8124286Y-16707000D01*
X8138571Y-16649857D01*
X8152857Y-16621286D01*
X8167143Y-16607000D01*
X8195714Y-16592714D01*
X8424286Y-16864143D02*
X8438571Y-16878429D01*
X8424286Y-16892714D01*
X8410000Y-16878429D01*
X8424286Y-16864143D01*
X8424286Y-16892714D01*
X8624286Y-16592714D02*
X8652857Y-16592714D01*
X8681428Y-16607000D01*
X8695714Y-16621286D01*
X8710000Y-16649857D01*
X8724286Y-16707000D01*
X8724286Y-16778429D01*
X8710000Y-16835572D01*
X8695714Y-16864143D01*
X8681428Y-16878429D01*
X8652857Y-16892714D01*
X8624286Y-16892714D01*
X8595714Y-16878429D01*
X8581428Y-16864143D01*
X8567143Y-16835572D01*
X8552857Y-16778429D01*
X8552857Y-16707000D01*
X8567143Y-16649857D01*
X8581428Y-16621286D01*
X8595714Y-16607000D01*
X8624286Y-16592714D01*
X8867143Y-16892714D02*
X8924286Y-16892714D01*
X8952857Y-16878429D01*
X8967143Y-16864143D01*
X8995714Y-16821286D01*
X9010000Y-16764143D01*
X9010000Y-16649857D01*
X8995714Y-16621286D01*
X8981428Y-16607000D01*
X8952857Y-16592714D01*
X8895714Y-16592714D01*
X8867143Y-16607000D01*
X8852857Y-16621286D01*
X8838571Y-16649857D01*
X8838571Y-16721286D01*
X8852857Y-16749857D01*
X8867143Y-16764143D01*
X8895714Y-16778429D01*
X8952857Y-16778429D01*
X8981428Y-16764143D01*
X8995714Y-16749857D01*
X9010000Y-16721286D01*
X9181428Y-16721286D02*
X9152857Y-16707000D01*
X9138571Y-16692714D01*
X9124286Y-16664143D01*
X9124286Y-16649857D01*
X9138571Y-16621286D01*
X9152857Y-16607000D01*
X9181428Y-16592714D01*
X9238571Y-16592714D01*
X9267143Y-16607000D01*
X9281428Y-16621286D01*
X9295714Y-16649857D01*
X9295714Y-16664143D01*
X9281428Y-16692714D01*
X9267143Y-16707000D01*
X9238571Y-16721286D01*
X9181428Y-16721286D01*
X9152857Y-16735571D01*
X9138571Y-16749857D01*
X9124286Y-16778429D01*
X9124286Y-16835572D01*
X9138571Y-16864143D01*
X9152857Y-16878429D01*
X9181428Y-16892714D01*
X9238571Y-16892714D01*
X9267143Y-16878429D01*
X9281428Y-16864143D01*
X9295714Y-16835572D01*
X9295714Y-16778429D01*
X9281428Y-16749857D01*
X9267143Y-16735571D01*
X9238571Y-16721286D01*
X9552857Y-16692714D02*
X9552857Y-16892714D01*
X9481428Y-16578429D02*
X9410000Y-16792714D01*
X9595714Y-16792714D01*
X9695714Y-16592714D02*
X9695714Y-16649857D01*
X9810000Y-16592714D02*
X9810000Y-16649857D01*
X10252857Y-17007000D02*
X10238571Y-16992714D01*
X10210000Y-16949857D01*
X10195714Y-16921286D01*
X10181428Y-16878429D01*
X10167143Y-16807000D01*
X10167143Y-16749857D01*
X10181428Y-16678429D01*
X10195714Y-16635571D01*
X10210000Y-16607000D01*
X10238571Y-16564143D01*
X10252857Y-16549857D01*
X10338571Y-16592714D02*
X10538571Y-16592714D01*
X10410000Y-16892714D01*
X10881428Y-16892714D02*
X10881428Y-16592714D01*
X11010000Y-16892714D02*
X11010000Y-16735571D01*
X10995714Y-16707000D01*
X10967143Y-16692714D01*
X10924286Y-16692714D01*
X10895714Y-16707000D01*
X10881428Y-16721286D01*
X11195714Y-16892714D02*
X11167143Y-16878429D01*
X11152857Y-16864143D01*
X11138571Y-16835572D01*
X11138571Y-16749857D01*
X11152857Y-16721286D01*
X11167143Y-16707000D01*
X11195714Y-16692714D01*
X11238571Y-16692714D01*
X11267143Y-16707000D01*
X11281428Y-16721286D01*
X11295714Y-16749857D01*
X11295714Y-16835572D01*
X11281428Y-16864143D01*
X11267143Y-16878429D01*
X11238571Y-16892714D01*
X11195714Y-16892714D01*
X11467143Y-16892714D02*
X11438571Y-16878429D01*
X11424286Y-16849857D01*
X11424286Y-16592714D01*
X11695714Y-16878429D02*
X11667143Y-16892714D01*
X11610000Y-16892714D01*
X11581428Y-16878429D01*
X11567143Y-16849857D01*
X11567143Y-16735571D01*
X11581428Y-16707000D01*
X11610000Y-16692714D01*
X11667143Y-16692714D01*
X11695714Y-16707000D01*
X11710000Y-16735571D01*
X11710000Y-16764143D01*
X11567143Y-16792714D01*
X11824286Y-16878429D02*
X11852857Y-16892714D01*
X11910000Y-16892714D01*
X11938571Y-16878429D01*
X11952857Y-16849857D01*
X11952857Y-16835572D01*
X11938571Y-16807000D01*
X11910000Y-16792714D01*
X11867143Y-16792714D01*
X11838571Y-16778429D01*
X11824286Y-16749857D01*
X11824286Y-16735571D01*
X11838571Y-16707000D01*
X11867143Y-16692714D01*
X11910000Y-16692714D01*
X11938571Y-16707000D01*
X12052857Y-17007000D02*
X12067143Y-16992714D01*
X12095714Y-16949857D01*
X12110000Y-16921286D01*
X12124286Y-16878429D01*
X12138571Y-16807000D01*
X12138571Y-16749857D01*
X12124286Y-16678429D01*
X12110000Y-16635571D01*
X12095714Y-16607000D01*
X12067143Y-16564143D01*
X12052857Y-16549857D01*
X12595714Y-17007000D02*
X12581428Y-16992714D01*
X12552857Y-16949857D01*
X12538571Y-16921286D01*
X12524286Y-16878429D01*
X12510000Y-16807000D01*
X12510000Y-16749857D01*
X12524286Y-16678429D01*
X12538571Y-16635571D01*
X12552857Y-16607000D01*
X12581428Y-16564143D01*
X12595714Y-16549857D01*
X12710000Y-16692714D02*
X12710000Y-16892714D01*
X12710000Y-16721286D02*
X12724286Y-16707000D01*
X12752857Y-16692714D01*
X12795714Y-16692714D01*
X12824286Y-16707000D01*
X12838571Y-16735571D01*
X12838571Y-16892714D01*
X13024286Y-16892714D02*
X12995714Y-16878429D01*
X12981428Y-16864143D01*
X12967143Y-16835572D01*
X12967143Y-16749857D01*
X12981428Y-16721286D01*
X12995714Y-16707000D01*
X13024286Y-16692714D01*
X13067143Y-16692714D01*
X13095714Y-16707000D01*
X13110000Y-16721286D01*
X13124286Y-16749857D01*
X13124286Y-16835572D01*
X13110000Y-16864143D01*
X13095714Y-16878429D01*
X13067143Y-16892714D01*
X13024286Y-16892714D01*
X13210000Y-16692714D02*
X13324286Y-16692714D01*
X13252857Y-16592714D02*
X13252857Y-16849857D01*
X13267143Y-16878429D01*
X13295714Y-16892714D01*
X13324286Y-16892714D01*
X13652857Y-16692714D02*
X13652857Y-16992714D01*
X13652857Y-16707000D02*
X13681428Y-16692714D01*
X13738571Y-16692714D01*
X13767143Y-16707000D01*
X13781428Y-16721286D01*
X13795714Y-16749857D01*
X13795714Y-16835572D01*
X13781428Y-16864143D01*
X13767143Y-16878429D01*
X13738571Y-16892714D01*
X13681428Y-16892714D01*
X13652857Y-16878429D01*
X13967143Y-16892714D02*
X13938571Y-16878429D01*
X13924286Y-16849857D01*
X13924286Y-16592714D01*
X14210000Y-16892714D02*
X14210000Y-16735571D01*
X14195714Y-16707000D01*
X14167143Y-16692714D01*
X14110000Y-16692714D01*
X14081428Y-16707000D01*
X14210000Y-16878429D02*
X14181428Y-16892714D01*
X14110000Y-16892714D01*
X14081428Y-16878429D01*
X14067143Y-16849857D01*
X14067143Y-16821286D01*
X14081428Y-16792714D01*
X14110000Y-16778429D01*
X14181428Y-16778429D01*
X14210000Y-16764143D01*
X14310000Y-16692714D02*
X14424286Y-16692714D01*
X14352857Y-16592714D02*
X14352857Y-16849857D01*
X14367143Y-16878429D01*
X14395714Y-16892714D01*
X14424286Y-16892714D01*
X14638571Y-16878429D02*
X14610000Y-16892714D01*
X14552857Y-16892714D01*
X14524286Y-16878429D01*
X14510000Y-16849857D01*
X14510000Y-16735571D01*
X14524286Y-16707000D01*
X14552857Y-16692714D01*
X14610000Y-16692714D01*
X14638571Y-16707000D01*
X14652857Y-16735571D01*
X14652857Y-16764143D01*
X14510000Y-16792714D01*
X14910000Y-16892714D02*
X14910000Y-16592714D01*
X14910000Y-16878429D02*
X14881428Y-16892714D01*
X14824286Y-16892714D01*
X14795714Y-16878429D01*
X14781428Y-16864143D01*
X14767143Y-16835572D01*
X14767143Y-16749857D01*
X14781428Y-16721286D01*
X14795714Y-16707000D01*
X14824286Y-16692714D01*
X14881428Y-16692714D01*
X14910000Y-16707000D01*
X15024286Y-17007000D02*
X15038571Y-16992714D01*
X15067143Y-16949857D01*
X15081428Y-16921286D01*
X15095714Y-16878429D01*
X15110000Y-16807000D01*
X15110000Y-16749857D01*
X15095714Y-16678429D01*
X15081428Y-16635571D01*
X15067143Y-16607000D01*
X15038571Y-16564143D01*
X15024286Y-16549857D01*
X4944477Y-17274977D02*
X4944477Y-17031023D01*
X4700523Y-17031023D01*
X4700523Y-17274977D01*
X4944477Y-17274977D01*
X5252857Y-16988714D02*
X5438571Y-16988714D01*
X5338571Y-17103000D01*
X5381428Y-17103000D01*
X5410000Y-17117286D01*
X5424286Y-17131572D01*
X5438571Y-17160143D01*
X5438571Y-17231572D01*
X5424286Y-17260143D01*
X5410000Y-17274429D01*
X5381428Y-17288714D01*
X5295714Y-17288714D01*
X5267143Y-17274429D01*
X5252857Y-17260143D01*
X5567143Y-17260143D02*
X5581428Y-17274429D01*
X5567143Y-17288714D01*
X5552857Y-17274429D01*
X5567143Y-17260143D01*
X5567143Y-17288714D01*
X5838571Y-17088714D02*
X5838571Y-17288714D01*
X5767143Y-16974429D02*
X5695714Y-17188714D01*
X5881428Y-17188714D01*
X6138571Y-16988714D02*
X5995714Y-16988714D01*
X5981428Y-17131572D01*
X5995714Y-17117286D01*
X6024286Y-17103000D01*
X6095714Y-17103000D01*
X6124286Y-17117286D01*
X6138571Y-17131572D01*
X6152857Y-17160143D01*
X6152857Y-17231572D01*
X6138571Y-17260143D01*
X6124286Y-17274429D01*
X6095714Y-17288714D01*
X6024286Y-17288714D01*
X5995714Y-17274429D01*
X5981428Y-17260143D01*
X6338571Y-16988714D02*
X6367143Y-16988714D01*
X6395714Y-17003000D01*
X6410000Y-17017286D01*
X6424286Y-17045857D01*
X6438571Y-17103000D01*
X6438571Y-17174429D01*
X6424286Y-17231572D01*
X6410000Y-17260143D01*
X6395714Y-17274429D01*
X6367143Y-17288714D01*
X6338571Y-17288714D01*
X6310000Y-17274429D01*
X6295714Y-17260143D01*
X6281428Y-17231572D01*
X6267143Y-17174429D01*
X6267143Y-17103000D01*
X6281428Y-17045857D01*
X6295714Y-17017286D01*
X6310000Y-17003000D01*
X6338571Y-16988714D01*
X6567143Y-17288714D02*
X6567143Y-17088714D01*
X6567143Y-17117286D02*
X6581428Y-17103000D01*
X6610000Y-17088714D01*
X6652857Y-17088714D01*
X6681428Y-17103000D01*
X6695714Y-17131572D01*
X6695714Y-17288714D01*
X6695714Y-17131572D02*
X6710000Y-17103000D01*
X6738571Y-17088714D01*
X6781428Y-17088714D01*
X6810000Y-17103000D01*
X6824286Y-17131572D01*
X6824286Y-17288714D01*
X6967143Y-17288714D02*
X6967143Y-17088714D01*
X6967143Y-17117286D02*
X6981428Y-17103000D01*
X7010000Y-17088714D01*
X7052857Y-17088714D01*
X7081428Y-17103000D01*
X7095714Y-17131572D01*
X7095714Y-17288714D01*
X7095714Y-17131572D02*
X7110000Y-17103000D01*
X7138571Y-17088714D01*
X7181428Y-17088714D01*
X7210000Y-17103000D01*
X7224286Y-17131572D01*
X7224286Y-17288714D01*
X7810000Y-16974429D02*
X7552857Y-17360143D01*
X8195714Y-16988714D02*
X8224286Y-16988714D01*
X8252857Y-17003000D01*
X8267143Y-17017286D01*
X8281428Y-17045857D01*
X8295714Y-17103000D01*
X8295714Y-17174429D01*
X8281428Y-17231572D01*
X8267143Y-17260143D01*
X8252857Y-17274429D01*
X8224286Y-17288714D01*
X8195714Y-17288714D01*
X8167143Y-17274429D01*
X8152857Y-17260143D01*
X8138571Y-17231572D01*
X8124286Y-17174429D01*
X8124286Y-17103000D01*
X8138571Y-17045857D01*
X8152857Y-17017286D01*
X8167143Y-17003000D01*
X8195714Y-16988714D01*
X8424286Y-17260143D02*
X8438571Y-17274429D01*
X8424286Y-17288714D01*
X8410000Y-17274429D01*
X8424286Y-17260143D01*
X8424286Y-17288714D01*
X8724286Y-17288714D02*
X8552857Y-17288714D01*
X8638571Y-17288714D02*
X8638571Y-16988714D01*
X8610000Y-17031572D01*
X8581428Y-17060143D01*
X8552857Y-17074429D01*
X8824286Y-16988714D02*
X9010000Y-16988714D01*
X8910000Y-17103000D01*
X8952857Y-17103000D01*
X8981428Y-17117286D01*
X8995714Y-17131572D01*
X9010000Y-17160143D01*
X9010000Y-17231572D01*
X8995714Y-17260143D01*
X8981428Y-17274429D01*
X8952857Y-17288714D01*
X8867143Y-17288714D01*
X8838571Y-17274429D01*
X8824286Y-17260143D01*
X9281428Y-16988714D02*
X9138571Y-16988714D01*
X9124286Y-17131572D01*
X9138571Y-17117286D01*
X9167143Y-17103000D01*
X9238571Y-17103000D01*
X9267143Y-17117286D01*
X9281428Y-17131572D01*
X9295714Y-17160143D01*
X9295714Y-17231572D01*
X9281428Y-17260143D01*
X9267143Y-17274429D01*
X9238571Y-17288714D01*
X9167143Y-17288714D01*
X9138571Y-17274429D01*
X9124286Y-17260143D01*
X9467143Y-17117286D02*
X9438571Y-17103000D01*
X9424286Y-17088714D01*
X9410000Y-17060143D01*
X9410000Y-17045857D01*
X9424286Y-17017286D01*
X9438571Y-17003000D01*
X9467143Y-16988714D01*
X9524286Y-16988714D01*
X9552857Y-17003000D01*
X9567143Y-17017286D01*
X9581428Y-17045857D01*
X9581428Y-17060143D01*
X9567143Y-17088714D01*
X9552857Y-17103000D01*
X9524286Y-17117286D01*
X9467143Y-17117286D01*
X9438571Y-17131572D01*
X9424286Y-17145857D01*
X9410000Y-17174429D01*
X9410000Y-17231572D01*
X9424286Y-17260143D01*
X9438571Y-17274429D01*
X9467143Y-17288714D01*
X9524286Y-17288714D01*
X9552857Y-17274429D01*
X9567143Y-17260143D01*
X9581428Y-17231572D01*
X9581428Y-17174429D01*
X9567143Y-17145857D01*
X9552857Y-17131572D01*
X9524286Y-17117286D01*
X9695714Y-16988714D02*
X9695714Y-17045857D01*
X9810000Y-16988714D02*
X9810000Y-17045857D01*
X10252857Y-17403000D02*
X10238571Y-17388714D01*
X10210000Y-17345857D01*
X10195714Y-17317286D01*
X10181428Y-17274429D01*
X10167143Y-17203000D01*
X10167143Y-17145857D01*
X10181428Y-17074429D01*
X10195714Y-17031572D01*
X10210000Y-17003000D01*
X10238571Y-16960143D01*
X10252857Y-16945857D01*
X10352857Y-17017286D02*
X10367143Y-17003000D01*
X10395714Y-16988714D01*
X10467143Y-16988714D01*
X10495714Y-17003000D01*
X10510000Y-17017286D01*
X10524286Y-17045857D01*
X10524286Y-17074429D01*
X10510000Y-17117286D01*
X10338571Y-17288714D01*
X10524286Y-17288714D01*
X10881428Y-17288714D02*
X10881428Y-16988714D01*
X11010000Y-17288714D02*
X11010000Y-17131572D01*
X10995714Y-17103000D01*
X10967143Y-17088714D01*
X10924286Y-17088714D01*
X10895714Y-17103000D01*
X10881428Y-17117286D01*
X11195714Y-17288714D02*
X11167143Y-17274429D01*
X11152857Y-17260143D01*
X11138571Y-17231572D01*
X11138571Y-17145857D01*
X11152857Y-17117286D01*
X11167143Y-17103000D01*
X11195714Y-17088714D01*
X11238571Y-17088714D01*
X11267143Y-17103000D01*
X11281428Y-17117286D01*
X11295714Y-17145857D01*
X11295714Y-17231572D01*
X11281428Y-17260143D01*
X11267143Y-17274429D01*
X11238571Y-17288714D01*
X11195714Y-17288714D01*
X11467143Y-17288714D02*
X11438571Y-17274429D01*
X11424286Y-17245857D01*
X11424286Y-16988714D01*
X11695714Y-17274429D02*
X11667143Y-17288714D01*
X11610000Y-17288714D01*
X11581428Y-17274429D01*
X11567143Y-17245857D01*
X11567143Y-17131572D01*
X11581428Y-17103000D01*
X11610000Y-17088714D01*
X11667143Y-17088714D01*
X11695714Y-17103000D01*
X11710000Y-17131572D01*
X11710000Y-17160143D01*
X11567143Y-17188714D01*
X11824286Y-17274429D02*
X11852857Y-17288714D01*
X11910000Y-17288714D01*
X11938571Y-17274429D01*
X11952857Y-17245857D01*
X11952857Y-17231572D01*
X11938571Y-17203000D01*
X11910000Y-17188714D01*
X11867143Y-17188714D01*
X11838571Y-17174429D01*
X11824286Y-17145857D01*
X11824286Y-17131572D01*
X11838571Y-17103000D01*
X11867143Y-17088714D01*
X11910000Y-17088714D01*
X11938571Y-17103000D01*
X12052857Y-17403000D02*
X12067143Y-17388714D01*
X12095714Y-17345857D01*
X12110000Y-17317286D01*
X12124286Y-17274429D01*
X12138571Y-17203000D01*
X12138571Y-17145857D01*
X12124286Y-17074429D01*
X12110000Y-17031572D01*
X12095714Y-17003000D01*
X12067143Y-16960143D01*
X12052857Y-16945857D01*
X12595714Y-17403000D02*
X12581428Y-17388714D01*
X12552857Y-17345857D01*
X12538571Y-17317286D01*
X12524286Y-17274429D01*
X12510000Y-17203000D01*
X12510000Y-17145857D01*
X12524286Y-17074429D01*
X12538571Y-17031572D01*
X12552857Y-17003000D01*
X12581428Y-16960143D01*
X12595714Y-16945857D01*
X12710000Y-17088714D02*
X12710000Y-17288714D01*
X12710000Y-17117286D02*
X12724286Y-17103000D01*
X12752857Y-17088714D01*
X12795714Y-17088714D01*
X12824286Y-17103000D01*
X12838571Y-17131572D01*
X12838571Y-17288714D01*
X13024286Y-17288714D02*
X12995714Y-17274429D01*
X12981428Y-17260143D01*
X12967143Y-17231572D01*
X12967143Y-17145857D01*
X12981428Y-17117286D01*
X12995714Y-17103000D01*
X13024286Y-17088714D01*
X13067143Y-17088714D01*
X13095714Y-17103000D01*
X13110000Y-17117286D01*
X13124286Y-17145857D01*
X13124286Y-17231572D01*
X13110000Y-17260143D01*
X13095714Y-17274429D01*
X13067143Y-17288714D01*
X13024286Y-17288714D01*
X13210000Y-17088714D02*
X13324286Y-17088714D01*
X13252857Y-16988714D02*
X13252857Y-17245857D01*
X13267143Y-17274429D01*
X13295714Y-17288714D01*
X13324286Y-17288714D01*
X13652857Y-17088714D02*
X13652857Y-17388714D01*
X13652857Y-17103000D02*
X13681428Y-17088714D01*
X13738571Y-17088714D01*
X13767143Y-17103000D01*
X13781428Y-17117286D01*
X13795714Y-17145857D01*
X13795714Y-17231572D01*
X13781428Y-17260143D01*
X13767143Y-17274429D01*
X13738571Y-17288714D01*
X13681428Y-17288714D01*
X13652857Y-17274429D01*
X13967143Y-17288714D02*
X13938571Y-17274429D01*
X13924286Y-17245857D01*
X13924286Y-16988714D01*
X14210000Y-17288714D02*
X14210000Y-17131572D01*
X14195714Y-17103000D01*
X14167143Y-17088714D01*
X14110000Y-17088714D01*
X14081428Y-17103000D01*
X14210000Y-17274429D02*
X14181428Y-17288714D01*
X14110000Y-17288714D01*
X14081428Y-17274429D01*
X14067143Y-17245857D01*
X14067143Y-17217286D01*
X14081428Y-17188714D01*
X14110000Y-17174429D01*
X14181428Y-17174429D01*
X14210000Y-17160143D01*
X14310000Y-17088714D02*
X14424286Y-17088714D01*
X14352857Y-16988714D02*
X14352857Y-17245857D01*
X14367143Y-17274429D01*
X14395714Y-17288714D01*
X14424286Y-17288714D01*
X14638571Y-17274429D02*
X14610000Y-17288714D01*
X14552857Y-17288714D01*
X14524286Y-17274429D01*
X14510000Y-17245857D01*
X14510000Y-17131572D01*
X14524286Y-17103000D01*
X14552857Y-17088714D01*
X14610000Y-17088714D01*
X14638571Y-17103000D01*
X14652857Y-17131572D01*
X14652857Y-17160143D01*
X14510000Y-17188714D01*
X14910000Y-17288714D02*
X14910000Y-16988714D01*
X14910000Y-17274429D02*
X14881428Y-17288714D01*
X14824286Y-17288714D01*
X14795714Y-17274429D01*
X14781428Y-17260143D01*
X14767143Y-17231572D01*
X14767143Y-17145857D01*
X14781428Y-17117286D01*
X14795714Y-17103000D01*
X14824286Y-17088714D01*
X14881428Y-17088714D01*
X14910000Y-17103000D01*
X15024286Y-17403000D02*
X15038571Y-17388714D01*
X15067143Y-17345857D01*
X15081428Y-17317286D01*
X15095714Y-17274429D01*
X15110000Y-17203000D01*
X15110000Y-17145857D01*
X15095714Y-17074429D01*
X15081428Y-17031572D01*
X15067143Y-17003000D01*
X15038571Y-16960143D01*
X15024286Y-16945857D01*
M02*
