M48
; DRILL file {KiCad (5.1.10)-1} date 10/14/21 15:07:06
; FORMAT={-:-/ absolute / metric / decimal}
; #@! TF.CreationDate,2021-10-14T15:07:06-04:00
; #@! TF.GenerationSoftware,Kicad,Pcbnew,(5.1.10)-1
; #@! TF.FileFunction,Plated,1,4,PTH
FMAT,2
METRIC
T1C0.200
T2C0.300
T3C0.400
T4C0.500
T5C0.550
T6C1.000
T7C1.300
T8C1.320
T9C1.400
%
G90
G05
T1
X72.4Y-120.8
X72.4Y-122.0
X73.6Y-120.8
X73.6Y-122.0
T2
X63.95Y-92.188
X64.5Y-99.525
X65.07Y-86.96
X68.91Y-54.29
X70.4Y-122.25
X71.2Y-111.65
X72.14Y-123.92
X72.85Y-109.35
X73.036Y-111.214
X73.195Y-112.155
X73.2Y-96.8
X73.402Y-108.654
X73.65Y-103.9
X73.7Y-96.15
X73.996Y-108.236
X74.3Y-103.4
X74.4Y-97.6
X74.57Y-107.79
X74.767Y-102.739
X74.8Y-107.1
X75.25Y-102.15
X75.775Y-109.5
X76.1Y-97.398
X76.275Y-86.45
X76.78Y-93.31
X76.95Y-97.95
X80.489Y-108.429
X80.75Y-107.05
X80.806Y-107.775
X80.89Y-109.036
X80.93Y-91.7
X80.939Y-110.679
X81.2Y-110.0
X81.357Y-111.273
X82.048Y-111.652
X82.275Y-109.45
X85.6Y-90.025
X85.901Y-103.739
X86.448Y-103.251
X86.965Y-102.739
X87.55Y-102.239
X88.29Y-51.24
X89.45Y-97.188
X89.5Y-101.688
X95.05Y-91.408
X95.05Y-92.135
X96.75Y-81.62
X96.8Y-97.95
X97.6Y-98.594
X98.1Y-76.748
X98.1Y-78.95
X98.797Y-76.542
X99.208Y-98.558
X100.45Y-78.05
X100.45Y-98.5
X100.5Y-78.848
X101.6Y-94.2
X101.8Y-114.3
X101.8Y-115.7
X102.15Y-93.6
X102.5Y-92.9
X102.533Y-94.95
X102.95Y-83.45
X103.35Y-81.25
X103.6Y-84.45
X104.3Y-84.698
X104.6Y-88.55
X109.1Y-91.4
X109.85Y-92.15
X115.05Y-84.5
X116.4Y-100.45
X117.5Y-82.8
X127.0Y-90.05
T3
X55.2Y-113.8
X58.4Y-122.3
X58.7Y-87.0
X59.337Y-96.738
X59.337Y-99.588
X61.712Y-92.188
X61.98Y-63.825
X61.98Y-71.775
X63.425Y-96.025
X63.5Y-100.6
X63.8Y-61.63
X64.95Y-94.2
X65.8Y-93.535
X66.2Y-118.0
X68.025Y-60.68
X68.36Y-88.24
X68.7Y-116.8
X72.0Y-57.6
X73.0Y-60.61
X73.7Y-124.8
X73.75Y-113.75
X74.7Y-124.04
X74.9Y-68.0
X75.45Y-69.3
X75.775Y-111.675
X76.275Y-84.21
X76.5Y-122.6
X76.55Y-69.2
X77.725Y-69.325
X77.8Y-88.2
X78.24Y-116.8
X79.05Y-94.448
X79.25Y-81.5
X79.75Y-95.15
X79.9Y-124.7
X80.302Y-67.923
X82.2Y-64.1
X82.74Y-65.88
X83.15Y-72.55
X83.55Y-64.1
X84.3Y-65.63
X84.5Y-72.55
X84.65Y-118.05
X85.1Y-88.2
X85.16Y-108.34
X85.8Y-72.55
X86.6Y-64.37
X87.7Y-64.97
X87.775Y-90.025
X90.56Y-76.81
X91.0Y-71.75
X92.08Y-97.188
X92.33Y-101.688
X92.4Y-124.66
X92.45Y-67.49
X93.75Y-73.5
X94.38Y-123.2
X94.53Y-65.3
X96.8Y-117.6
X97.1Y-70.95
X97.2Y-67.1
X97.28Y-79.895
X97.45Y-74.2
X97.75Y-71.75
X99.7Y-125.0
X100.362Y-112.637
X100.83Y-81.25
X100.862Y-73.95
X101.3Y-126.4
X101.5Y-119.75
X102.26Y-68.41
X104.05Y-110.0
X104.35Y-114.0
X104.85Y-60.45
X104.9Y-62.7
X104.9Y-117.1
X105.325Y-121.025
X106.5Y-76.25
X106.6Y-60.45
X106.6Y-62.7
X106.7Y-72.8
X106.7Y-70.9
X106.75Y-69.0
X107.0Y-123.25
X107.525Y-116.275
X107.6Y-81.6
X107.6Y-84.0
X107.6Y-86.4
X107.7Y-122.3
X108.51Y-109.32
X108.8Y-82.7
X108.8Y-85.2
X110.0Y-81.6
X110.0Y-86.4
X110.1Y-83.9
X111.15Y-90.2
X111.4Y-82.7
X111.4Y-85.3
X112.2Y-93.89
X112.4Y-71.6
X112.4Y-73.8
X112.4Y-81.6
X112.4Y-84.0
X112.4Y-86.4
X112.8Y-114.0
X113.35Y-90.2
X115.2Y-55.3
X117.85Y-79.45
X118.25Y-85.58
X118.95Y-72.9
X119.89Y-83.06
X119.95Y-92.3
X121.137Y-93.4
X122.1Y-64.15
X124.39Y-92.3
X124.8Y-80.462
X125.93Y-87.4
X126.02Y-73.05
X126.2Y-85.0
X126.45Y-68.3
X128.15Y-78.1
X128.65Y-68.35
X128.921Y-78.614
X129.525Y-84.45
X130.65Y-68.35
X131.16Y-80.462
X131.25Y-84.5
X132.125Y-73.175
X133.85Y-73.2
X135.9Y-63.65
X140.075Y-65.525
X141.04Y-79.2
T6
X54.66Y-104.46
X54.66Y-107.0
X54.66Y-109.54
X57.2Y-104.46
X57.2Y-107.0
X57.2Y-109.54
X114.06Y-120.81
X114.06Y-123.35
X116.6Y-120.81
X116.6Y-123.35
X119.14Y-120.81
X119.14Y-123.35
X121.68Y-120.81
X121.68Y-123.35
X124.22Y-120.81
X124.22Y-123.35
X126.76Y-120.81
X126.76Y-123.35
X129.3Y-120.81
X129.3Y-123.35
X131.84Y-120.81
X131.84Y-123.35
X134.38Y-120.81
X134.38Y-123.35
X136.92Y-120.81
X136.92Y-123.35
X139.46Y-120.81
X139.46Y-123.35
X142.0Y-120.81
X142.0Y-123.35
X144.54Y-120.81
X144.54Y-123.35
X144.56Y-105.558
X144.56Y-108.098
X144.56Y-110.638
X144.56Y-113.178
X144.56Y-115.718
X144.57Y-85.238
X144.57Y-87.778
X144.57Y-90.318
X144.57Y-92.858
X144.57Y-95.398
X144.57Y-97.938
X147.08Y-120.81
X147.08Y-123.35
X147.1Y-105.558
X147.1Y-108.098
X147.1Y-110.638
X147.1Y-113.178
X147.1Y-115.718
X147.11Y-85.238
X147.11Y-87.778
X147.11Y-90.318
X147.11Y-92.858
X147.11Y-95.398
X147.11Y-97.938
T7
X118.75Y-58.45
X121.25Y-58.45
X123.75Y-53.45
X126.25Y-58.45
X128.75Y-58.45
X131.2Y-58.45
X133.7Y-58.45
X136.2Y-53.45
X138.7Y-58.45
X141.2Y-58.45
T8
X68.67Y-137.75
X140.89Y-137.75
T9
X54.5Y-135.0
X54.5Y-139.0
X54.5Y-143.0
X57.0Y-135.0
X57.0Y-139.0
X57.0Y-143.0
T4
X66.7Y-53.425G85X66.7Y-52.775
G05
X73.7Y-53.425G85X73.7Y-52.775
G05
T5
X67.85Y-55.8G85X67.55Y-55.8
G05
X72.85Y-55.8G85X72.55Y-55.8
G05
T0
M30
