%TF.GenerationSoftware,KiCad,Pcbnew,(5.1.10)-1*%
%TF.CreationDate,2021-10-14T15:05:34-04:00*%
%TF.ProjectId,gf-minus1,67662d6d-696e-4757-9331-2e6b69636164,rev?*%
%TF.SameCoordinates,Original*%
%TF.FileFunction,Copper,L4,Bot*%
%TF.FilePolarity,Positive*%
%FSLAX46Y46*%
G04 Gerber Fmt 4.6, Leading zero omitted, Abs format (unit mm)*
G04 Created by KiCad (PCBNEW (5.1.10)-1) date 2021-10-14 15:05:34*
%MOMM*%
%LPD*%
G01*
G04 APERTURE LIST*
%TA.AperFunction,NonConductor*%
%ADD10C,0.300000*%
%TD*%
%TA.AperFunction,ComponentPad*%
%ADD11R,1.700000X1.700000*%
%TD*%
%TA.AperFunction,ComponentPad*%
%ADD12O,1.700000X1.700000*%
%TD*%
%TA.AperFunction,ComponentPad*%
%ADD13C,0.600000*%
%TD*%
%TA.AperFunction,SMDPad,CuDef*%
%ADD14R,0.600000X2.000000*%
%TD*%
%TA.AperFunction,ComponentPad*%
%ADD15C,0.700000*%
%TD*%
%TA.AperFunction,SMDPad,CuDef*%
%ADD16R,1.900000X1.900000*%
%TD*%
%TA.AperFunction,ComponentPad*%
%ADD17R,2.000000X2.000000*%
%TD*%
%TA.AperFunction,ComponentPad*%
%ADD18C,2.000000*%
%TD*%
%TA.AperFunction,ComponentPad*%
%ADD19O,1.000000X1.550000*%
%TD*%
%TA.AperFunction,ComponentPad*%
%ADD20O,1.250000X0.950000*%
%TD*%
%TA.AperFunction,ComponentPad*%
%ADD21C,2.500000*%
%TD*%
%TA.AperFunction,ViaPad*%
%ADD22C,0.800000*%
%TD*%
%TA.AperFunction,ViaPad*%
%ADD23C,0.600000*%
%TD*%
%TA.AperFunction,Conductor*%
%ADD24C,0.400000*%
%TD*%
%TA.AperFunction,Conductor*%
%ADD25C,0.250000*%
%TD*%
%TA.AperFunction,Conductor*%
%ADD26C,0.127000*%
%TD*%
G04 APERTURE END LIST*
D10*
X125779428Y-128988571D02*
X124922285Y-128988571D01*
X125350857Y-130488571D02*
X125350857Y-128988571D01*
X124422285Y-130488571D02*
X124422285Y-128988571D01*
X123779428Y-130488571D02*
X123779428Y-129702857D01*
X123850857Y-129560000D01*
X123993714Y-129488571D01*
X124208000Y-129488571D01*
X124350857Y-129560000D01*
X124422285Y-129631428D01*
X122422285Y-130488571D02*
X122422285Y-129702857D01*
X122493714Y-129560000D01*
X122636571Y-129488571D01*
X122922285Y-129488571D01*
X123065142Y-129560000D01*
X122422285Y-130417142D02*
X122565142Y-130488571D01*
X122922285Y-130488571D01*
X123065142Y-130417142D01*
X123136571Y-130274285D01*
X123136571Y-130131428D01*
X123065142Y-129988571D01*
X122922285Y-129917142D01*
X122565142Y-129917142D01*
X122422285Y-129845714D01*
X121708000Y-129488571D02*
X121708000Y-130488571D01*
X121708000Y-129631428D02*
X121636571Y-129560000D01*
X121493714Y-129488571D01*
X121279428Y-129488571D01*
X121136571Y-129560000D01*
X121065142Y-129702857D01*
X121065142Y-130488571D01*
X120350857Y-130488571D02*
X120350857Y-128988571D01*
X120208000Y-129917142D02*
X119779428Y-130488571D01*
X119779428Y-129488571D02*
X120350857Y-130060000D01*
X119208000Y-130417142D02*
X119065142Y-130488571D01*
X118779428Y-130488571D01*
X118636571Y-130417142D01*
X118565142Y-130274285D01*
X118565142Y-130202857D01*
X118636571Y-130060000D01*
X118779428Y-129988571D01*
X118993714Y-129988571D01*
X119136571Y-129917142D01*
X119208000Y-129774285D01*
X119208000Y-129702857D01*
X119136571Y-129560000D01*
X118993714Y-129488571D01*
X118779428Y-129488571D01*
X118636571Y-129560000D01*
X116993714Y-129488571D02*
X116422285Y-129488571D01*
X116779428Y-128988571D02*
X116779428Y-130274285D01*
X116708000Y-130417142D01*
X116565142Y-130488571D01*
X116422285Y-130488571D01*
X115707999Y-130488571D02*
X115850857Y-130417142D01*
X115922285Y-130345714D01*
X115993714Y-130202857D01*
X115993714Y-129774285D01*
X115922285Y-129631428D01*
X115850857Y-129560000D01*
X115707999Y-129488571D01*
X115493714Y-129488571D01*
X115350857Y-129560000D01*
X115279428Y-129631428D01*
X115207999Y-129774285D01*
X115207999Y-130202857D01*
X115279428Y-130345714D01*
X115350857Y-130417142D01*
X115493714Y-130488571D01*
X115707999Y-130488571D01*
X112779428Y-130488571D02*
X112779428Y-129702857D01*
X112850857Y-129560000D01*
X112993714Y-129488571D01*
X113279428Y-129488571D01*
X113422285Y-129560000D01*
X112779428Y-130417142D02*
X112922285Y-130488571D01*
X113279428Y-130488571D01*
X113422285Y-130417142D01*
X113493714Y-130274285D01*
X113493714Y-130131428D01*
X113422285Y-129988571D01*
X113279428Y-129917142D01*
X112922285Y-129917142D01*
X112779428Y-129845714D01*
X111850857Y-130488571D02*
X111993714Y-130417142D01*
X112065142Y-130274285D01*
X112065142Y-128988571D01*
X110707999Y-130417142D02*
X110850857Y-130488571D01*
X111136571Y-130488571D01*
X111279428Y-130417142D01*
X111350857Y-130274285D01*
X111350857Y-129702857D01*
X111279428Y-129560000D01*
X111136571Y-129488571D01*
X110850857Y-129488571D01*
X110707999Y-129560000D01*
X110636571Y-129702857D01*
X110636571Y-129845714D01*
X111350857Y-129988571D01*
X109779428Y-130488571D02*
X109922285Y-130417142D01*
X109993714Y-130274285D01*
X109993714Y-128988571D01*
X108993714Y-130488571D02*
X109136571Y-130417142D01*
X109207999Y-130345714D01*
X109279428Y-130202857D01*
X109279428Y-129774285D01*
X109207999Y-129631428D01*
X109136571Y-129560000D01*
X108993714Y-129488571D01*
X108779428Y-129488571D01*
X108636571Y-129560000D01*
X108565142Y-129631428D01*
X108493714Y-129774285D01*
X108493714Y-130202857D01*
X108565142Y-130345714D01*
X108636571Y-130417142D01*
X108779428Y-130488571D01*
X108993714Y-130488571D01*
X107850857Y-129488571D02*
X107850857Y-130488571D01*
X107850857Y-129631428D02*
X107779428Y-129560000D01*
X107636571Y-129488571D01*
X107422285Y-129488571D01*
X107279428Y-129560000D01*
X107207999Y-129702857D01*
X107207999Y-130488571D01*
X105850857Y-130488571D02*
X105850857Y-128988571D01*
X105850857Y-130417142D02*
X105993714Y-130488571D01*
X106279428Y-130488571D01*
X106422285Y-130417142D01*
X106493714Y-130345714D01*
X106565142Y-130202857D01*
X106565142Y-129774285D01*
X106493714Y-129631428D01*
X106422285Y-129560000D01*
X106279428Y-129488571D01*
X105993714Y-129488571D01*
X105850857Y-129560000D01*
X104922285Y-130488571D02*
X105065142Y-130417142D01*
X105136571Y-130345714D01*
X105207999Y-130202857D01*
X105207999Y-129774285D01*
X105136571Y-129631428D01*
X105065142Y-129560000D01*
X104922285Y-129488571D01*
X104707999Y-129488571D01*
X104565142Y-129560000D01*
X104493714Y-129631428D01*
X104422285Y-129774285D01*
X104422285Y-130202857D01*
X104493714Y-130345714D01*
X104565142Y-130417142D01*
X104707999Y-130488571D01*
X104922285Y-130488571D01*
X103779428Y-129488571D02*
X103779428Y-130488571D01*
X103779428Y-129631428D02*
X103707999Y-129560000D01*
X103565142Y-129488571D01*
X103350857Y-129488571D01*
X103207999Y-129560000D01*
X103136571Y-129702857D01*
X103136571Y-130488571D01*
X102350857Y-130417142D02*
X102350857Y-130488571D01*
X102422285Y-130631428D01*
X102493714Y-130702857D01*
X100707999Y-129488571D02*
X100350857Y-130488571D01*
X99993714Y-129488571D01*
X99422285Y-130488571D02*
X99422285Y-129488571D01*
X99422285Y-129631428D02*
X99350857Y-129560000D01*
X99207999Y-129488571D01*
X98993714Y-129488571D01*
X98850857Y-129560000D01*
X98779428Y-129702857D01*
X98779428Y-130488571D01*
X98779428Y-129702857D02*
X98707999Y-129560000D01*
X98565142Y-129488571D01*
X98350857Y-129488571D01*
X98207999Y-129560000D01*
X98136571Y-129702857D01*
X98136571Y-130488571D01*
X97636571Y-129488571D02*
X97065142Y-129488571D01*
X97422285Y-128988571D02*
X97422285Y-130274285D01*
X97350857Y-130417142D01*
X97207999Y-130488571D01*
X97065142Y-130488571D01*
X96779428Y-129488571D02*
X96207999Y-129488571D01*
X96565142Y-128988571D02*
X96565142Y-130274285D01*
X96493714Y-130417142D01*
X96350857Y-130488571D01*
X96207999Y-130488571D01*
X95707999Y-130488571D02*
X95707999Y-129488571D01*
X95707999Y-129631428D02*
X95636571Y-129560000D01*
X95493714Y-129488571D01*
X95279428Y-129488571D01*
X95136571Y-129560000D01*
X95065142Y-129702857D01*
X95065142Y-130488571D01*
X95065142Y-129702857D02*
X94993714Y-129560000D01*
X94850857Y-129488571D01*
X94636571Y-129488571D01*
X94493714Y-129560000D01*
X94422285Y-129702857D01*
X94422285Y-130488571D01*
X93850857Y-129488571D02*
X93493714Y-130488571D01*
X93136571Y-129488571D01*
X90779428Y-130488571D02*
X90779428Y-129702857D01*
X90850857Y-129560000D01*
X90993714Y-129488571D01*
X91279428Y-129488571D01*
X91422285Y-129560000D01*
X90779428Y-130417142D02*
X90922285Y-130488571D01*
X91279428Y-130488571D01*
X91422285Y-130417142D01*
X91493714Y-130274285D01*
X91493714Y-130131428D01*
X91422285Y-129988571D01*
X91279428Y-129917142D01*
X90922285Y-129917142D01*
X90779428Y-129845714D01*
X90065142Y-129488571D02*
X90065142Y-130488571D01*
X90065142Y-129631428D02*
X89993714Y-129560000D01*
X89850857Y-129488571D01*
X89636571Y-129488571D01*
X89493714Y-129560000D01*
X89422285Y-129702857D01*
X89422285Y-130488571D01*
X88065142Y-130488571D02*
X88065142Y-128988571D01*
X88065142Y-130417142D02*
X88207999Y-130488571D01*
X88493714Y-130488571D01*
X88636571Y-130417142D01*
X88707999Y-130345714D01*
X88779428Y-130202857D01*
X88779428Y-129774285D01*
X88707999Y-129631428D01*
X88636571Y-129560000D01*
X88493714Y-129488571D01*
X88207999Y-129488571D01*
X88065142Y-129560000D01*
X85707999Y-129702857D02*
X85493714Y-129774285D01*
X85422285Y-129845714D01*
X85350857Y-129988571D01*
X85350857Y-130202857D01*
X85422285Y-130345714D01*
X85493714Y-130417142D01*
X85636571Y-130488571D01*
X86207999Y-130488571D01*
X86207999Y-128988571D01*
X85707999Y-128988571D01*
X85565142Y-129060000D01*
X85493714Y-129131428D01*
X85422285Y-129274285D01*
X85422285Y-129417142D01*
X85493714Y-129560000D01*
X85565142Y-129631428D01*
X85707999Y-129702857D01*
X86207999Y-129702857D01*
X84493714Y-130488571D02*
X84636571Y-130417142D01*
X84707999Y-130274285D01*
X84707999Y-128988571D01*
X83922285Y-130488571D02*
X83922285Y-129488571D01*
X83922285Y-128988571D02*
X83993714Y-129060000D01*
X83922285Y-129131428D01*
X83850857Y-129060000D01*
X83922285Y-128988571D01*
X83922285Y-129131428D01*
X83207999Y-129488571D02*
X83207999Y-130488571D01*
X83207999Y-129631428D02*
X83136571Y-129560000D01*
X82993714Y-129488571D01*
X82779428Y-129488571D01*
X82636571Y-129560000D01*
X82565142Y-129702857D01*
X82565142Y-130488571D01*
X81207999Y-130488571D02*
X81207999Y-128988571D01*
X81207999Y-130417142D02*
X81350857Y-130488571D01*
X81636571Y-130488571D01*
X81779428Y-130417142D01*
X81850857Y-130345714D01*
X81922285Y-130202857D01*
X81922285Y-129774285D01*
X81850857Y-129631428D01*
X81779428Y-129560000D01*
X81636571Y-129488571D01*
X81350857Y-129488571D01*
X81207999Y-129560000D01*
X80707999Y-128988571D02*
X80207999Y-130488571D01*
X79707999Y-128988571D01*
X79207999Y-130488571D02*
X79207999Y-129488571D01*
X79207999Y-128988571D02*
X79279428Y-129060000D01*
X79207999Y-129131428D01*
X79136571Y-129060000D01*
X79207999Y-128988571D01*
X79207999Y-129131428D01*
X77850857Y-130488571D02*
X77850857Y-129702857D01*
X77922285Y-129560000D01*
X78065142Y-129488571D01*
X78350857Y-129488571D01*
X78493714Y-129560000D01*
X77850857Y-130417142D02*
X77993714Y-130488571D01*
X78350857Y-130488571D01*
X78493714Y-130417142D01*
X78565142Y-130274285D01*
X78565142Y-130131428D01*
X78493714Y-129988571D01*
X78350857Y-129917142D01*
X77993714Y-129917142D01*
X77850857Y-129845714D01*
X122743714Y-132038571D02*
X122172285Y-132038571D01*
X122529428Y-133038571D02*
X122529428Y-131752857D01*
X122458000Y-131610000D01*
X122315142Y-131538571D01*
X122172285Y-131538571D01*
X121458000Y-133038571D02*
X121600857Y-132967142D01*
X121672285Y-132895714D01*
X121743714Y-132752857D01*
X121743714Y-132324285D01*
X121672285Y-132181428D01*
X121600857Y-132110000D01*
X121458000Y-132038571D01*
X121243714Y-132038571D01*
X121100857Y-132110000D01*
X121029428Y-132181428D01*
X120958000Y-132324285D01*
X120958000Y-132752857D01*
X121029428Y-132895714D01*
X121100857Y-132967142D01*
X121243714Y-133038571D01*
X121458000Y-133038571D01*
X120315142Y-133038571D02*
X120315142Y-132038571D01*
X120315142Y-132324285D02*
X120243714Y-132181428D01*
X120172285Y-132110000D01*
X120029428Y-132038571D01*
X119886571Y-132038571D01*
X118458000Y-132038571D02*
X117886571Y-132038571D01*
X118243714Y-131538571D02*
X118243714Y-132824285D01*
X118172285Y-132967142D01*
X118029428Y-133038571D01*
X117886571Y-133038571D01*
X117386571Y-133038571D02*
X117386571Y-131538571D01*
X116743714Y-133038571D02*
X116743714Y-132252857D01*
X116815142Y-132110000D01*
X116958000Y-132038571D01*
X117172285Y-132038571D01*
X117315142Y-132110000D01*
X117386571Y-132181428D01*
X115458000Y-132967142D02*
X115600857Y-133038571D01*
X115886571Y-133038571D01*
X116029428Y-132967142D01*
X116100857Y-132824285D01*
X116100857Y-132252857D01*
X116029428Y-132110000D01*
X115886571Y-132038571D01*
X115600857Y-132038571D01*
X115458000Y-132110000D01*
X115386571Y-132252857D01*
X115386571Y-132395714D01*
X116100857Y-132538571D01*
X114743714Y-133038571D02*
X114743714Y-132038571D01*
X114743714Y-131538571D02*
X114815142Y-131610000D01*
X114743714Y-131681428D01*
X114672285Y-131610000D01*
X114743714Y-131538571D01*
X114743714Y-131681428D01*
X114029428Y-133038571D02*
X114029428Y-132038571D01*
X114029428Y-132324285D02*
X113958000Y-132181428D01*
X113886571Y-132110000D01*
X113743714Y-132038571D01*
X113600857Y-132038571D01*
X111315142Y-132967142D02*
X111458000Y-133038571D01*
X111743714Y-133038571D01*
X111886571Y-132967142D01*
X111958000Y-132895714D01*
X112029428Y-132752857D01*
X112029428Y-132324285D01*
X111958000Y-132181428D01*
X111886571Y-132110000D01*
X111743714Y-132038571D01*
X111458000Y-132038571D01*
X111315142Y-132110000D01*
X110458000Y-133038571D02*
X110600857Y-132967142D01*
X110672285Y-132895714D01*
X110743714Y-132752857D01*
X110743714Y-132324285D01*
X110672285Y-132181428D01*
X110600857Y-132110000D01*
X110458000Y-132038571D01*
X110243714Y-132038571D01*
X110100857Y-132110000D01*
X110029428Y-132181428D01*
X109958000Y-132324285D01*
X109958000Y-132752857D01*
X110029428Y-132895714D01*
X110100857Y-132967142D01*
X110243714Y-133038571D01*
X110458000Y-133038571D01*
X109315142Y-132038571D02*
X109315142Y-133038571D01*
X109315142Y-132181428D02*
X109243714Y-132110000D01*
X109100857Y-132038571D01*
X108886571Y-132038571D01*
X108743714Y-132110000D01*
X108672285Y-132252857D01*
X108672285Y-133038571D01*
X108172285Y-132038571D02*
X107600857Y-132038571D01*
X107958000Y-131538571D02*
X107958000Y-132824285D01*
X107886571Y-132967142D01*
X107743714Y-133038571D01*
X107600857Y-133038571D01*
X107100857Y-133038571D02*
X107100857Y-132038571D01*
X107100857Y-132324285D02*
X107029428Y-132181428D01*
X106958000Y-132110000D01*
X106815142Y-132038571D01*
X106672285Y-132038571D01*
X106172285Y-133038571D02*
X106172285Y-132038571D01*
X106172285Y-131538571D02*
X106243714Y-131610000D01*
X106172285Y-131681428D01*
X106100857Y-131610000D01*
X106172285Y-131538571D01*
X106172285Y-131681428D01*
X105458000Y-133038571D02*
X105458000Y-131538571D01*
X105458000Y-132110000D02*
X105315142Y-132038571D01*
X105029428Y-132038571D01*
X104886571Y-132110000D01*
X104815142Y-132181428D01*
X104743714Y-132324285D01*
X104743714Y-132752857D01*
X104815142Y-132895714D01*
X104886571Y-132967142D01*
X105029428Y-133038571D01*
X105315142Y-133038571D01*
X105458000Y-132967142D01*
X103458000Y-132038571D02*
X103458000Y-133038571D01*
X104100857Y-132038571D02*
X104100857Y-132824285D01*
X104029428Y-132967142D01*
X103886571Y-133038571D01*
X103672285Y-133038571D01*
X103529428Y-132967142D01*
X103458000Y-132895714D01*
X102958000Y-132038571D02*
X102386571Y-132038571D01*
X102743714Y-131538571D02*
X102743714Y-132824285D01*
X102672285Y-132967142D01*
X102529428Y-133038571D01*
X102386571Y-133038571D01*
X101886571Y-133038571D02*
X101886571Y-132038571D01*
X101886571Y-131538571D02*
X101958000Y-131610000D01*
X101886571Y-131681428D01*
X101815142Y-131610000D01*
X101886571Y-131538571D01*
X101886571Y-131681428D01*
X100958000Y-133038571D02*
X101100857Y-132967142D01*
X101172285Y-132895714D01*
X101243714Y-132752857D01*
X101243714Y-132324285D01*
X101172285Y-132181428D01*
X101100857Y-132110000D01*
X100958000Y-132038571D01*
X100743714Y-132038571D01*
X100600857Y-132110000D01*
X100529428Y-132181428D01*
X100458000Y-132324285D01*
X100458000Y-132752857D01*
X100529428Y-132895714D01*
X100600857Y-132967142D01*
X100743714Y-133038571D01*
X100958000Y-133038571D01*
X99815142Y-132038571D02*
X99815142Y-133038571D01*
X99815142Y-132181428D02*
X99743714Y-132110000D01*
X99600857Y-132038571D01*
X99386571Y-132038571D01*
X99243714Y-132110000D01*
X99172285Y-132252857D01*
X99172285Y-133038571D01*
X97529428Y-132038571D02*
X96958000Y-132038571D01*
X97315142Y-131538571D02*
X97315142Y-132824285D01*
X97243714Y-132967142D01*
X97100857Y-133038571D01*
X96958000Y-133038571D01*
X96243714Y-133038571D02*
X96386571Y-132967142D01*
X96458000Y-132895714D01*
X96529428Y-132752857D01*
X96529428Y-132324285D01*
X96458000Y-132181428D01*
X96386571Y-132110000D01*
X96243714Y-132038571D01*
X96029428Y-132038571D01*
X95886571Y-132110000D01*
X95815142Y-132181428D01*
X95743714Y-132324285D01*
X95743714Y-132752857D01*
X95815142Y-132895714D01*
X95886571Y-132967142D01*
X96029428Y-133038571D01*
X96243714Y-133038571D01*
X93172285Y-131610000D02*
X93315142Y-131538571D01*
X93529428Y-131538571D01*
X93743714Y-131610000D01*
X93886571Y-131752857D01*
X93958000Y-131895714D01*
X94029428Y-132181428D01*
X94029428Y-132395714D01*
X93958000Y-132681428D01*
X93886571Y-132824285D01*
X93743714Y-132967142D01*
X93529428Y-133038571D01*
X93386571Y-133038571D01*
X93172285Y-132967142D01*
X93100857Y-132895714D01*
X93100857Y-132395714D01*
X93386571Y-132395714D01*
X92243714Y-133038571D02*
X92386571Y-132967142D01*
X92458000Y-132824285D01*
X92458000Y-131538571D01*
X91029428Y-132038571D02*
X91029428Y-133038571D01*
X91672285Y-132038571D02*
X91672285Y-132824285D01*
X91600857Y-132967142D01*
X91458000Y-133038571D01*
X91243714Y-133038571D01*
X91100857Y-132967142D01*
X91029428Y-132895714D01*
X90529428Y-132038571D02*
X89958000Y-132038571D01*
X90315142Y-131538571D02*
X90315142Y-132824285D01*
X90243714Y-132967142D01*
X90100857Y-133038571D01*
X89958000Y-133038571D01*
X88886571Y-132967142D02*
X89029428Y-133038571D01*
X89315142Y-133038571D01*
X89458000Y-132967142D01*
X89529428Y-132824285D01*
X89529428Y-132252857D01*
X89458000Y-132110000D01*
X89315142Y-132038571D01*
X89029428Y-132038571D01*
X88886571Y-132110000D01*
X88815142Y-132252857D01*
X88815142Y-132395714D01*
X89529428Y-132538571D01*
X88172285Y-132038571D02*
X88172285Y-133038571D01*
X88172285Y-132181428D02*
X88100857Y-132110000D01*
X87958000Y-132038571D01*
X87743714Y-132038571D01*
X87600857Y-132110000D01*
X87529428Y-132252857D01*
X87529428Y-133038571D01*
X86815142Y-132467142D02*
X85672285Y-132467142D01*
X84458000Y-132252857D02*
X84958000Y-132252857D01*
X84958000Y-133038571D02*
X84958000Y-131538571D01*
X84243714Y-131538571D01*
X83672285Y-133038571D02*
X83672285Y-132038571D01*
X83672285Y-132324285D02*
X83600857Y-132181428D01*
X83529428Y-132110000D01*
X83386571Y-132038571D01*
X83243714Y-132038571D01*
X82172285Y-132967142D02*
X82315142Y-133038571D01*
X82600857Y-133038571D01*
X82743714Y-132967142D01*
X82815142Y-132824285D01*
X82815142Y-132252857D01*
X82743714Y-132110000D01*
X82600857Y-132038571D01*
X82315142Y-132038571D01*
X82172285Y-132110000D01*
X82100857Y-132252857D01*
X82100857Y-132395714D01*
X82815142Y-132538571D01*
X80886571Y-132967142D02*
X81029428Y-133038571D01*
X81315142Y-133038571D01*
X81458000Y-132967142D01*
X81529428Y-132824285D01*
X81529428Y-132252857D01*
X81458000Y-132110000D01*
X81315142Y-132038571D01*
X81029428Y-132038571D01*
X80886571Y-132110000D01*
X80815142Y-132252857D01*
X80815142Y-132395714D01*
X81529428Y-132538571D01*
%TA.AperFunction,SMDPad,CuDef*%
G36*
G01*
X109447500Y-124672500D02*
X108972500Y-124672500D01*
G75*
G02*
X108735000Y-124435000I0J237500D01*
G01*
X108735000Y-123935000D01*
G75*
G02*
X108972500Y-123697500I237500J0D01*
G01*
X109447500Y-123697500D01*
G75*
G02*
X109685000Y-123935000I0J-237500D01*
G01*
X109685000Y-124435000D01*
G75*
G02*
X109447500Y-124672500I-237500J0D01*
G01*
G37*
%TD.AperFunction*%
%TA.AperFunction,SMDPad,CuDef*%
G36*
G01*
X109447500Y-122847500D02*
X108972500Y-122847500D01*
G75*
G02*
X108735000Y-122610000I0J237500D01*
G01*
X108735000Y-122110000D01*
G75*
G02*
X108972500Y-121872500I237500J0D01*
G01*
X109447500Y-121872500D01*
G75*
G02*
X109685000Y-122110000I0J-237500D01*
G01*
X109685000Y-122610000D01*
G75*
G02*
X109447500Y-122847500I-237500J0D01*
G01*
G37*
%TD.AperFunction*%
%TA.AperFunction,SMDPad,CuDef*%
G36*
G01*
X105617500Y-126012500D02*
X105142500Y-126012500D01*
G75*
G02*
X104905000Y-125775000I0J237500D01*
G01*
X104905000Y-125275000D01*
G75*
G02*
X105142500Y-125037500I237500J0D01*
G01*
X105617500Y-125037500D01*
G75*
G02*
X105855000Y-125275000I0J-237500D01*
G01*
X105855000Y-125775000D01*
G75*
G02*
X105617500Y-126012500I-237500J0D01*
G01*
G37*
%TD.AperFunction*%
%TA.AperFunction,SMDPad,CuDef*%
G36*
G01*
X105617500Y-124187500D02*
X105142500Y-124187500D01*
G75*
G02*
X104905000Y-123950000I0J237500D01*
G01*
X104905000Y-123450000D01*
G75*
G02*
X105142500Y-123212500I237500J0D01*
G01*
X105617500Y-123212500D01*
G75*
G02*
X105855000Y-123450000I0J-237500D01*
G01*
X105855000Y-123950000D01*
G75*
G02*
X105617500Y-124187500I-237500J0D01*
G01*
G37*
%TD.AperFunction*%
%TA.AperFunction,SMDPad,CuDef*%
G36*
G01*
X126262500Y-75380000D02*
X126737500Y-75380000D01*
G75*
G02*
X126975000Y-75617500I0J-237500D01*
G01*
X126975000Y-76117500D01*
G75*
G02*
X126737500Y-76355000I-237500J0D01*
G01*
X126262500Y-76355000D01*
G75*
G02*
X126025000Y-76117500I0J237500D01*
G01*
X126025000Y-75617500D01*
G75*
G02*
X126262500Y-75380000I237500J0D01*
G01*
G37*
%TD.AperFunction*%
%TA.AperFunction,SMDPad,CuDef*%
G36*
G01*
X126262500Y-77205000D02*
X126737500Y-77205000D01*
G75*
G02*
X126975000Y-77442500I0J-237500D01*
G01*
X126975000Y-77942500D01*
G75*
G02*
X126737500Y-78180000I-237500J0D01*
G01*
X126262500Y-78180000D01*
G75*
G02*
X126025000Y-77942500I0J237500D01*
G01*
X126025000Y-77442500D01*
G75*
G02*
X126262500Y-77205000I237500J0D01*
G01*
G37*
%TD.AperFunction*%
%TA.AperFunction,SMDPad,CuDef*%
G36*
G01*
X126747500Y-81502500D02*
X126272500Y-81502500D01*
G75*
G02*
X126035000Y-81265000I0J237500D01*
G01*
X126035000Y-80765000D01*
G75*
G02*
X126272500Y-80527500I237500J0D01*
G01*
X126747500Y-80527500D01*
G75*
G02*
X126985000Y-80765000I0J-237500D01*
G01*
X126985000Y-81265000D01*
G75*
G02*
X126747500Y-81502500I-237500J0D01*
G01*
G37*
%TD.AperFunction*%
%TA.AperFunction,SMDPad,CuDef*%
G36*
G01*
X126747500Y-79677500D02*
X126272500Y-79677500D01*
G75*
G02*
X126035000Y-79440000I0J237500D01*
G01*
X126035000Y-78940000D01*
G75*
G02*
X126272500Y-78702500I237500J0D01*
G01*
X126747500Y-78702500D01*
G75*
G02*
X126985000Y-78940000I0J-237500D01*
G01*
X126985000Y-79440000D01*
G75*
G02*
X126747500Y-79677500I-237500J0D01*
G01*
G37*
%TD.AperFunction*%
%TA.AperFunction,SMDPad,CuDef*%
G36*
G01*
X94972500Y-68257500D02*
X95447500Y-68257500D01*
G75*
G02*
X95685000Y-68495000I0J-237500D01*
G01*
X95685000Y-68995000D01*
G75*
G02*
X95447500Y-69232500I-237500J0D01*
G01*
X94972500Y-69232500D01*
G75*
G02*
X94735000Y-68995000I0J237500D01*
G01*
X94735000Y-68495000D01*
G75*
G02*
X94972500Y-68257500I237500J0D01*
G01*
G37*
%TD.AperFunction*%
%TA.AperFunction,SMDPad,CuDef*%
G36*
G01*
X94972500Y-70082500D02*
X95447500Y-70082500D01*
G75*
G02*
X95685000Y-70320000I0J-237500D01*
G01*
X95685000Y-70820000D01*
G75*
G02*
X95447500Y-71057500I-237500J0D01*
G01*
X94972500Y-71057500D01*
G75*
G02*
X94735000Y-70820000I0J237500D01*
G01*
X94735000Y-70320000D01*
G75*
G02*
X94972500Y-70082500I237500J0D01*
G01*
G37*
%TD.AperFunction*%
%TA.AperFunction,SMDPad,CuDef*%
G36*
G01*
X95487500Y-76440000D02*
X95012500Y-76440000D01*
G75*
G02*
X94775000Y-76202500I0J237500D01*
G01*
X94775000Y-75702500D01*
G75*
G02*
X95012500Y-75465000I237500J0D01*
G01*
X95487500Y-75465000D01*
G75*
G02*
X95725000Y-75702500I0J-237500D01*
G01*
X95725000Y-76202500D01*
G75*
G02*
X95487500Y-76440000I-237500J0D01*
G01*
G37*
%TD.AperFunction*%
%TA.AperFunction,SMDPad,CuDef*%
G36*
G01*
X95487500Y-74615000D02*
X95012500Y-74615000D01*
G75*
G02*
X94775000Y-74377500I0J237500D01*
G01*
X94775000Y-73877500D01*
G75*
G02*
X95012500Y-73640000I237500J0D01*
G01*
X95487500Y-73640000D01*
G75*
G02*
X95725000Y-73877500I0J-237500D01*
G01*
X95725000Y-74377500D01*
G75*
G02*
X95487500Y-74615000I-237500J0D01*
G01*
G37*
%TD.AperFunction*%
%TA.AperFunction,SMDPad,CuDef*%
G36*
G01*
X68680000Y-97402500D02*
X68680000Y-97877500D01*
G75*
G02*
X68442500Y-98115000I-237500J0D01*
G01*
X67942500Y-98115000D01*
G75*
G02*
X67705000Y-97877500I0J237500D01*
G01*
X67705000Y-97402500D01*
G75*
G02*
X67942500Y-97165000I237500J0D01*
G01*
X68442500Y-97165000D01*
G75*
G02*
X68680000Y-97402500I0J-237500D01*
G01*
G37*
%TD.AperFunction*%
%TA.AperFunction,SMDPad,CuDef*%
G36*
G01*
X66855000Y-97402500D02*
X66855000Y-97877500D01*
G75*
G02*
X66617500Y-98115000I-237500J0D01*
G01*
X66117500Y-98115000D01*
G75*
G02*
X65880000Y-97877500I0J237500D01*
G01*
X65880000Y-97402500D01*
G75*
G02*
X66117500Y-97165000I237500J0D01*
G01*
X66617500Y-97165000D01*
G75*
G02*
X66855000Y-97402500I0J-237500D01*
G01*
G37*
%TD.AperFunction*%
%TA.AperFunction,SMDPad,CuDef*%
G36*
G01*
X62560000Y-97887500D02*
X62560000Y-97412500D01*
G75*
G02*
X62797500Y-97175000I237500J0D01*
G01*
X63297500Y-97175000D01*
G75*
G02*
X63535000Y-97412500I0J-237500D01*
G01*
X63535000Y-97887500D01*
G75*
G02*
X63297500Y-98125000I-237500J0D01*
G01*
X62797500Y-98125000D01*
G75*
G02*
X62560000Y-97887500I0J237500D01*
G01*
G37*
%TD.AperFunction*%
%TA.AperFunction,SMDPad,CuDef*%
G36*
G01*
X64385000Y-97887500D02*
X64385000Y-97412500D01*
G75*
G02*
X64622500Y-97175000I237500J0D01*
G01*
X65122500Y-97175000D01*
G75*
G02*
X65360000Y-97412500I0J-237500D01*
G01*
X65360000Y-97887500D01*
G75*
G02*
X65122500Y-98125000I-237500J0D01*
G01*
X64622500Y-98125000D01*
G75*
G02*
X64385000Y-97887500I0J237500D01*
G01*
G37*
%TD.AperFunction*%
D11*
X114060000Y-123350000D03*
D12*
X114060000Y-120810000D03*
X116600000Y-123350000D03*
X116600000Y-120810000D03*
X119140000Y-123350000D03*
X119140000Y-120810000D03*
X121680000Y-123350000D03*
X121680000Y-120810000D03*
X124220000Y-123350000D03*
X124220000Y-120810000D03*
X126760000Y-123350000D03*
X126760000Y-120810000D03*
X129300000Y-123350000D03*
X129300000Y-120810000D03*
X131840000Y-123350000D03*
X131840000Y-120810000D03*
X134380000Y-123350000D03*
X134380000Y-120810000D03*
X136920000Y-123350000D03*
X136920000Y-120810000D03*
X139460000Y-123350000D03*
X139460000Y-120810000D03*
X142000000Y-123350000D03*
X142000000Y-120810000D03*
X144540000Y-123350000D03*
X144540000Y-120810000D03*
X147080000Y-123350000D03*
X147080000Y-120810000D03*
D11*
X144560000Y-105558000D03*
D12*
X147100000Y-105558000D03*
X144560000Y-108098000D03*
X147100000Y-108098000D03*
X144560000Y-110638000D03*
X147100000Y-110638000D03*
X144560000Y-113178000D03*
X147100000Y-113178000D03*
X144560000Y-115718000D03*
X147100000Y-115718000D03*
D13*
X101800000Y-114300000D03*
X101800000Y-115700000D03*
D14*
X101800000Y-115000000D03*
D15*
X72400000Y-120800000D03*
X73600000Y-120800000D03*
X72400000Y-122000000D03*
X73600000Y-122000000D03*
D16*
X73000000Y-121400000D03*
D17*
X54500000Y-135000000D03*
D18*
X54500000Y-139000000D03*
X54500000Y-143000000D03*
X57000000Y-135000000D03*
X57000000Y-139000000D03*
X57000000Y-143000000D03*
X118750000Y-58450000D03*
X121250000Y-58450000D03*
X126250000Y-58450000D03*
X128750000Y-58450000D03*
X123750000Y-53450000D03*
X131200000Y-58450000D03*
X133700000Y-58450000D03*
X138700000Y-58450000D03*
X141200000Y-58450000D03*
X136200000Y-53450000D03*
D11*
X54660000Y-104460000D03*
D12*
X57200000Y-104460000D03*
X54660000Y-107000000D03*
X57200000Y-107000000D03*
X54660000Y-109540000D03*
X57200000Y-109540000D03*
X144570000Y-85238000D03*
X147110000Y-85238000D03*
X144570000Y-87778000D03*
X147110000Y-87778000D03*
X144570000Y-90318000D03*
X147110000Y-90318000D03*
X144570000Y-92858000D03*
X147110000Y-92858000D03*
X144570000Y-95398000D03*
X147110000Y-95398000D03*
X144570000Y-97938000D03*
D11*
X147110000Y-97938000D03*
D19*
X66700000Y-53100000D03*
X73700000Y-53100000D03*
D20*
X72700000Y-55800000D03*
X67700000Y-55800000D03*
D21*
X68670000Y-137750000D03*
X140890000Y-137750000D03*
D22*
X72000000Y-57600000D03*
X73750000Y-113750004D03*
X108800000Y-85200000D03*
X111400000Y-85300000D03*
X111400000Y-82700000D03*
X108800000Y-82700000D03*
X110100000Y-83900000D03*
X112400000Y-84000000D03*
X107600000Y-84000000D03*
X110000000Y-86400000D03*
X110000000Y-81600000D03*
X107600000Y-86400000D03*
X112400000Y-86400000D03*
X112400000Y-81600000D03*
X107600000Y-81600000D03*
X101300000Y-126400000D03*
X99700000Y-125000000D03*
X119890000Y-83060000D03*
X92080000Y-97187500D03*
X92330000Y-101687500D03*
X76275000Y-84210000D03*
X90560000Y-76810000D03*
X97280000Y-79895000D03*
X100830000Y-81250000D03*
X131160000Y-80462500D03*
X141040000Y-79200000D03*
X126020000Y-73050000D03*
X124390000Y-92300000D03*
X125930000Y-87400000D03*
X112200000Y-93890000D03*
X78240000Y-116800000D03*
X74700000Y-124040000D03*
X92400000Y-124660000D03*
X108510000Y-109320000D03*
X68025000Y-60680000D03*
X73000000Y-60610000D03*
X63800000Y-61630000D03*
X61980000Y-71775000D03*
X61980000Y-63825000D03*
X94380000Y-123200000D03*
X92450000Y-67490000D03*
X82200000Y-64100000D03*
X104050000Y-110000000D03*
X107525000Y-116275000D03*
X105325000Y-121025000D03*
X101500000Y-119749988D03*
X85160000Y-108340000D03*
X75775000Y-111674962D03*
X59337500Y-99587506D03*
X59337500Y-96737514D03*
X63425000Y-96025000D03*
X63500000Y-100599998D03*
X61712500Y-92187500D03*
X68360012Y-88240000D03*
X106700002Y-72800000D03*
X106700010Y-70900000D03*
X106750002Y-69000000D03*
X94530000Y-65300000D03*
X106600000Y-60450000D03*
X106600000Y-62700000D03*
X91000000Y-71750000D03*
X93750000Y-73500000D03*
X100862500Y-73950000D03*
X112400000Y-73800000D03*
X112400000Y-71600000D03*
X106500000Y-76250000D03*
X97200000Y-67100000D03*
X132125000Y-73175000D03*
X135900000Y-63650000D03*
X140075000Y-65525002D03*
X118950000Y-72899986D03*
X117850004Y-79450000D03*
X124800000Y-80462500D03*
X126200006Y-84999994D03*
X115200000Y-55300000D03*
X66200000Y-118000014D03*
X68699990Y-116800000D03*
X79900000Y-124700010D03*
X131250000Y-84499986D03*
X122100000Y-64150000D03*
X130650000Y-68349946D03*
X128650000Y-68350000D03*
X87774998Y-90025000D03*
D23*
X80930000Y-91700000D03*
X76780000Y-93310000D03*
X88290000Y-51240000D03*
X70400000Y-122250000D03*
X72140000Y-123920000D03*
D22*
X118250000Y-85580000D03*
X102260002Y-68410000D03*
D23*
X68910000Y-54290000D03*
X117500000Y-82800000D03*
X103350000Y-81250000D03*
X96750000Y-81620000D03*
D22*
X83150000Y-72550000D03*
X84500000Y-72550000D03*
X85800000Y-72550000D03*
X74900000Y-68000000D03*
X83550000Y-64100000D03*
D23*
X63950000Y-92187500D03*
X64500000Y-99525000D03*
X75775000Y-109500000D03*
X82275000Y-109450000D03*
X89500000Y-101687500D03*
X89450000Y-97187500D03*
X85600000Y-90025000D03*
X76275000Y-86450000D03*
D22*
X79250000Y-81500000D03*
X133850000Y-73200000D03*
X129525000Y-84450000D03*
X119950000Y-92300000D03*
X121137500Y-93400000D03*
X113350000Y-90200000D03*
X111150000Y-90200000D03*
X100362500Y-112637500D03*
X104350000Y-114000000D03*
X112800000Y-114000000D03*
X97450000Y-74200000D03*
X104900000Y-62700000D03*
X104850000Y-60450000D03*
X58700000Y-87000000D03*
X126450000Y-68300034D03*
D23*
X65070000Y-86960000D03*
X102950000Y-83450000D03*
X115050000Y-84500000D03*
X116400000Y-100450000D03*
X73650000Y-103900000D03*
X74300000Y-103400000D03*
X74767006Y-102739500D03*
X75250000Y-102150000D03*
X76950000Y-97950000D03*
D22*
X64950000Y-94200000D03*
X107000000Y-123250000D03*
X79750000Y-95150000D03*
X97750000Y-71750000D03*
X128921312Y-78614208D03*
D23*
X76100000Y-97397990D03*
D22*
X65800000Y-93535500D03*
X107700000Y-122300000D03*
X79050000Y-94447990D03*
X97100000Y-70950000D03*
X128150000Y-78100000D03*
X75450000Y-69300000D03*
X82740000Y-65880000D03*
X76550000Y-69200000D03*
X86600000Y-64370000D03*
X80302010Y-67922990D03*
X84300000Y-65630000D03*
D23*
X98797104Y-76541658D03*
X100450000Y-78050000D03*
D22*
X77800000Y-88200000D03*
X85100000Y-88200000D03*
D23*
X98100000Y-76748000D03*
X100500000Y-78848000D03*
X95050000Y-91408497D03*
X109100000Y-91400000D03*
X95050000Y-92135500D03*
X109850000Y-92150000D03*
X102500000Y-92900000D03*
X96800000Y-97950000D03*
X101600000Y-94200000D03*
X97600000Y-98593968D03*
X102150000Y-93600000D03*
X99208413Y-98558413D03*
X100450000Y-98500000D03*
X102533152Y-94950000D03*
X87550000Y-102239500D03*
X86964674Y-102739500D03*
X86448012Y-103250961D03*
X85901417Y-103739500D03*
X80750000Y-107050000D03*
X80805758Y-107774860D03*
X80489048Y-108429251D03*
X80889742Y-109035861D03*
X81200000Y-110000000D03*
X80939022Y-110678544D03*
X81356960Y-111273405D03*
X82048324Y-111652000D03*
X74800000Y-107100000D03*
X74570102Y-107789695D03*
X73996474Y-108236329D03*
X73401605Y-108654255D03*
X72849605Y-109350000D03*
X73035630Y-111214370D03*
X73195307Y-112154693D03*
X71200000Y-111650000D03*
X104600000Y-88550000D03*
X104300000Y-84697990D03*
X98100000Y-78950000D03*
X127000000Y-90050000D03*
X103600000Y-84450000D03*
D22*
X77725000Y-69325000D03*
X87700000Y-64970000D03*
X84650000Y-118050000D03*
X76500000Y-122600000D03*
X55200000Y-113800000D03*
X58400017Y-122299983D03*
X73700000Y-124800000D03*
X96800000Y-117600000D03*
X104900000Y-117100000D03*
D23*
X73200000Y-96800000D03*
X73700000Y-96150000D03*
X74400000Y-97600000D03*
D24*
X72000000Y-57600000D02*
X72000000Y-112000004D01*
X72000000Y-112000004D02*
X73750000Y-113750004D01*
D25*
X64500000Y-99525000D02*
X63030000Y-98055000D01*
X63030000Y-98055000D02*
X63030000Y-97730000D01*
X65416962Y-92187500D02*
X63950000Y-92187500D01*
X68165000Y-94935538D02*
X65416962Y-92187500D01*
X68165000Y-97640000D02*
X68165000Y-94935538D01*
X131152500Y-75897500D02*
X133850000Y-73200000D01*
X126500000Y-75897500D02*
X131152500Y-75897500D01*
X126510000Y-81435000D02*
X129525000Y-84450000D01*
X126510000Y-81015000D02*
X126510000Y-81435000D01*
X89605000Y-68745000D02*
X85800000Y-72550000D01*
X95210000Y-68745000D02*
X89605000Y-68745000D01*
X95697500Y-75952500D02*
X97450000Y-74200000D01*
X95250000Y-75952500D02*
X95697500Y-75952500D01*
X105380000Y-125525000D02*
X107875000Y-125525000D01*
X107875000Y-125525000D02*
X109180000Y-124220000D01*
X109210000Y-124185000D02*
X113255000Y-124185000D01*
X113255000Y-124185000D02*
X114030000Y-123410000D01*
D24*
X115050000Y-81200000D02*
X115050000Y-84500000D01*
X113550000Y-79700000D02*
X115050000Y-81200000D01*
X106700000Y-79700000D02*
X113550000Y-79700000D01*
X102950000Y-83450000D02*
X106700000Y-79700000D01*
D25*
X73949999Y-104199999D02*
X83249999Y-104199999D01*
X119668492Y-107018970D02*
X119749522Y-107100000D01*
X83249999Y-104199999D02*
X86068970Y-107018970D01*
X86068970Y-107018970D02*
X119668492Y-107018970D01*
X135700000Y-120250000D02*
X135700000Y-122100000D01*
X135700000Y-122100000D02*
X136950000Y-123350000D01*
X73650000Y-103900000D02*
X73949999Y-104199999D01*
X119749522Y-107100000D02*
X122550000Y-107100000D01*
X122550000Y-107100000D02*
X135700000Y-120250000D01*
X127700000Y-111550000D02*
X136950000Y-120800000D01*
X127597999Y-111447999D02*
X127700000Y-111550000D01*
X74300000Y-103400000D02*
X83200000Y-103400000D01*
X83200000Y-103400000D02*
X86441960Y-106641960D01*
X86441960Y-106641960D02*
X119824656Y-106641960D01*
X119832696Y-106650000D02*
X122800000Y-106650000D01*
X122800000Y-106650000D02*
X123250000Y-107100000D01*
X123250000Y-107100000D02*
X127700000Y-111550000D01*
X119824656Y-106641960D02*
X119832696Y-106650000D01*
X124150000Y-106200000D02*
X138200000Y-120250000D01*
X138200000Y-122050000D02*
X139500000Y-123350000D01*
X86616828Y-106200000D02*
X124150000Y-106200000D01*
X83156328Y-102739500D02*
X86616828Y-106200000D01*
X138200000Y-120250000D02*
X138200000Y-122050000D01*
X74767006Y-102739500D02*
X83156328Y-102739500D01*
X86772990Y-105822989D02*
X104048031Y-105822989D01*
X83100001Y-102150000D02*
X86772990Y-105822989D01*
X124472989Y-105822989D02*
X139450000Y-120800000D01*
X104048031Y-105822989D02*
X124472989Y-105822989D01*
X75250000Y-102150000D02*
X83100001Y-102150000D01*
X90138160Y-115604020D02*
X97784140Y-123250000D01*
X73572710Y-115604020D02*
X90138160Y-115604020D01*
X65422991Y-107454301D02*
X73572710Y-115604020D01*
X64950000Y-94200000D02*
X65422991Y-94672991D01*
X85752001Y-88512961D02*
X85752001Y-83747999D01*
X79750000Y-94514962D02*
X85752001Y-88512961D01*
X79750000Y-95150000D02*
X79750000Y-94514962D01*
X128783519Y-78752001D02*
X128921312Y-78614208D01*
X110145998Y-77000000D02*
X111897999Y-78752001D01*
X102434315Y-77000000D02*
X110145998Y-77000000D01*
X97750000Y-72315685D02*
X102434315Y-77000000D01*
X97750000Y-71750000D02*
X97750000Y-72315685D01*
D26*
X65330000Y-97640000D02*
X65422991Y-97547009D01*
X64872500Y-97640000D02*
X65330000Y-97640000D01*
D25*
X65422991Y-97547009D02*
X65422991Y-107454301D01*
X65422991Y-94672991D02*
X65422991Y-97547009D01*
X126510000Y-78774002D02*
X126532001Y-78752001D01*
X126510000Y-79190000D02*
X126510000Y-78774002D01*
X126532001Y-78752001D02*
X128783519Y-78752001D01*
X111897999Y-78752001D02*
X126532001Y-78752001D01*
X95250000Y-74250000D02*
X95165000Y-74335000D01*
X95250000Y-74127500D02*
X95250000Y-74250000D01*
X95165000Y-74335000D02*
X97750000Y-71750000D01*
X85752001Y-83747999D02*
X95165000Y-74335000D01*
X105380000Y-123330000D02*
X105460000Y-123250000D01*
X105380000Y-123700000D02*
X105380000Y-123330000D01*
X105460000Y-123250000D02*
X107000000Y-123250000D01*
X97784140Y-123250000D02*
X105460000Y-123250000D01*
X78899999Y-99899999D02*
X76950000Y-97950000D01*
X109683653Y-99899999D02*
X78899999Y-99899999D01*
X127495982Y-98995980D02*
X110587672Y-98995980D01*
X139138002Y-110638000D02*
X127495982Y-98995980D01*
X110587672Y-98995980D02*
X109683653Y-99899999D01*
X144560000Y-110638000D02*
X139138002Y-110638000D01*
X97367312Y-122300000D02*
X107700000Y-122300000D01*
X90294322Y-115227010D02*
X97367312Y-122300000D01*
X73728872Y-115227010D02*
X90294322Y-115227010D01*
X65800000Y-107298138D02*
X73728872Y-115227010D01*
X77147999Y-87887039D02*
X94085038Y-70950000D01*
X77147999Y-92545989D02*
X77147999Y-87887039D01*
X79050000Y-94447990D02*
X77147999Y-92545989D01*
X105785048Y-70950000D02*
X112935048Y-78100000D01*
X97100000Y-70950000D02*
X105785048Y-70950000D01*
D26*
X66340000Y-97640000D02*
X65890000Y-97640000D01*
D25*
X65800000Y-97550000D02*
X65800000Y-107298138D01*
D26*
X65890000Y-97640000D02*
X65800000Y-97550000D01*
D25*
X65800000Y-93535500D02*
X65800000Y-97550000D01*
X126500000Y-78010000D02*
X126410000Y-78100000D01*
X126500000Y-77722500D02*
X126500000Y-78010000D01*
X126410000Y-78100000D02*
X128150000Y-78100000D01*
X112935048Y-78100000D02*
X126410000Y-78100000D01*
X95210000Y-70870000D02*
X95130000Y-70950000D01*
X95210000Y-70570000D02*
X95210000Y-70870000D01*
X95130000Y-70950000D02*
X97100000Y-70950000D01*
X94085038Y-70950000D02*
X95130000Y-70950000D01*
X107760000Y-122360000D02*
X107700000Y-122300000D01*
X109210000Y-122360000D02*
X107760000Y-122360000D01*
X78435037Y-100351999D02*
X76100000Y-98016962D01*
X109764827Y-100351999D02*
X78435037Y-100351999D01*
X76100000Y-98016962D02*
X76100000Y-97397990D01*
X110743836Y-99372990D02*
X109764827Y-100351999D01*
X124189335Y-99372989D02*
X110743836Y-99372990D01*
X136724346Y-111908000D02*
X124189335Y-99372989D01*
X145830000Y-111908000D02*
X136724346Y-111908000D01*
X147100000Y-110638000D02*
X145830000Y-111908000D01*
X75450000Y-69300000D02*
X78870000Y-65880000D01*
X78870000Y-65880000D02*
X82740000Y-65880000D01*
X77100000Y-68650000D02*
X76550000Y-69200000D01*
X82320000Y-68650000D02*
X77100000Y-68650000D01*
X86600000Y-64370000D02*
X82320000Y-68650000D01*
X82007010Y-67922990D02*
X80302010Y-67922990D01*
X84300000Y-65630000D02*
X82007010Y-67922990D01*
D26*
X100305446Y-78050000D02*
X100450000Y-78050000D01*
X98797104Y-76541658D02*
X100305446Y-78050000D01*
D25*
X77800000Y-88200000D02*
X85100000Y-88200000D01*
D26*
X100200000Y-78848000D02*
X100500000Y-78848000D01*
X98100000Y-76748000D02*
X100200000Y-78848000D01*
X109091503Y-91408497D02*
X109100000Y-91400000D01*
X95050000Y-91408497D02*
X109091503Y-91408497D01*
X109835500Y-92135500D02*
X109850000Y-92150000D01*
X95050000Y-92135500D02*
X109835500Y-92135500D01*
D25*
X101850000Y-92900000D02*
X96800000Y-97950000D01*
X102500000Y-92900000D02*
X101850000Y-92900000D01*
X101600000Y-94200000D02*
X97600000Y-98200000D01*
X97600000Y-98200000D02*
X97600000Y-98593968D01*
X102449999Y-94216191D02*
X99208413Y-97457777D01*
X99208413Y-97457777D02*
X99208413Y-98558413D01*
X102449999Y-93899999D02*
X102449999Y-94216191D01*
X102150000Y-93600000D02*
X102449999Y-93899999D01*
X100450000Y-97033152D02*
X102533152Y-94950000D01*
X100450000Y-98500000D02*
X100450000Y-97033152D01*
X127900000Y-104150000D02*
X144550000Y-120800000D01*
X89460500Y-104150000D02*
X127900000Y-104150000D01*
X87550000Y-102239500D02*
X89460500Y-104150000D01*
X143300000Y-122100000D02*
X144550000Y-123350000D01*
X143300000Y-120099000D02*
X143300000Y-122100000D01*
X127823989Y-104622989D02*
X143300000Y-120099000D01*
X88848163Y-104622989D02*
X127823989Y-104622989D01*
X86964674Y-102739500D02*
X88848163Y-104622989D01*
X126200000Y-105000000D02*
X142000000Y-120800000D01*
X88197051Y-105000000D02*
X126200000Y-105000000D01*
X86448012Y-103250961D02*
X88197051Y-105000000D01*
X140750000Y-122100000D02*
X142000000Y-123350000D01*
X140750000Y-120133040D02*
X140750000Y-122100000D01*
X126062940Y-105445980D02*
X140750000Y-120133040D01*
X87607897Y-105445980D02*
X126062940Y-105445980D01*
X85901417Y-103739500D02*
X87607897Y-105445980D01*
X119612327Y-107495979D02*
X121095980Y-107495980D01*
X80750000Y-107050000D02*
X85566828Y-107050000D01*
X121095980Y-107495980D02*
X132229011Y-118629011D01*
X132229011Y-118629011D02*
X134400000Y-120800000D01*
X85566828Y-107050000D02*
X85912808Y-107395980D01*
X85912808Y-107395980D02*
X119512328Y-107395980D01*
X119512328Y-107395980D02*
X119612327Y-107495979D01*
X120869950Y-107872990D02*
X133100000Y-120103040D01*
X133100000Y-120103040D02*
X133100000Y-122050000D01*
X119456164Y-107872990D02*
X120869950Y-107872990D01*
X119356164Y-107772990D02*
X119456164Y-107872990D01*
X85756646Y-107772990D02*
X119356164Y-107772990D01*
X85458517Y-107474861D02*
X85756646Y-107772990D01*
X81105757Y-107474861D02*
X85458517Y-107474861D01*
X133100000Y-122050000D02*
X134400000Y-123350000D01*
X80805758Y-107774860D02*
X81105757Y-107474861D01*
X130757999Y-119707999D02*
X131850000Y-120800000D01*
X87100000Y-108150000D02*
X119200000Y-108150000D01*
X86242961Y-109007039D02*
X87100000Y-108150000D01*
X84862077Y-109007039D02*
X86242961Y-109007039D01*
X84284289Y-108429251D02*
X84862077Y-109007039D01*
X80489048Y-108429251D02*
X84284289Y-108429251D01*
X119200000Y-108150000D02*
X130757999Y-119707999D01*
X130550000Y-120200000D02*
X130550000Y-122050000D01*
X119017999Y-108667999D02*
X130550000Y-120200000D01*
X130550000Y-122050000D02*
X131850000Y-123350000D01*
X86415951Y-109384049D02*
X87132001Y-108667999D01*
X84705915Y-109384049D02*
X86415951Y-109384049D01*
X84171866Y-108850000D02*
X84705915Y-109384049D01*
X81864139Y-109035861D02*
X82050000Y-108850000D01*
X87132001Y-108667999D02*
X119017999Y-108667999D01*
X82050000Y-108850000D02*
X84171866Y-108850000D01*
X80889742Y-109035861D02*
X81864139Y-109035861D01*
X81499999Y-110299999D02*
X86300001Y-110299999D01*
X81200000Y-110000000D02*
X81499999Y-110299999D01*
X107573037Y-109347999D02*
X108225038Y-110000000D01*
X87252001Y-109347999D02*
X107573037Y-109347999D01*
X86300001Y-110299999D02*
X87252001Y-109347999D01*
X108225038Y-110000000D02*
X118500000Y-110000000D01*
X118500000Y-110000000D02*
X129300000Y-120800000D01*
X128000000Y-120050000D02*
X128000000Y-122050000D01*
X118628544Y-110678544D02*
X128000000Y-120050000D01*
X103221456Y-110678544D02*
X118628544Y-110678544D01*
X102292912Y-109750000D02*
X103221456Y-110678544D01*
X128000000Y-122050000D02*
X129300000Y-123350000D01*
X87600000Y-109750000D02*
X102292912Y-109750000D01*
X86671456Y-110678544D02*
X87600000Y-109750000D01*
X80939022Y-110678544D02*
X86671456Y-110678544D01*
X102750000Y-111100000D02*
X117050000Y-111100000D01*
X101800000Y-110150000D02*
X102750000Y-111100000D01*
X87950000Y-110150000D02*
X101800000Y-110150000D01*
X87000000Y-111100000D02*
X87950000Y-110150000D01*
X81530365Y-111100000D02*
X87000000Y-111100000D01*
X117050000Y-111100000D02*
X126750000Y-120800000D01*
X81356960Y-111273405D02*
X81530365Y-111100000D01*
X125500000Y-120083172D02*
X125500000Y-122100000D01*
X125500000Y-122100000D02*
X126700000Y-123300000D01*
X102298000Y-111652000D02*
X117068828Y-111652000D01*
X101246000Y-110600000D02*
X102298000Y-111652000D01*
X88250000Y-110600000D02*
X101246000Y-110600000D01*
X87198000Y-111652000D02*
X88250000Y-110600000D01*
X117068828Y-111652000D02*
X125500000Y-120083172D01*
X82048324Y-111652000D02*
X87198000Y-111652000D01*
X87179171Y-112204001D02*
X88406162Y-110977010D01*
X79904001Y-112204001D02*
X87179171Y-112204001D01*
X74800000Y-107100000D02*
X79904001Y-112204001D01*
X102212828Y-112100000D02*
X116983656Y-112100000D01*
X101089838Y-110977010D02*
X102212828Y-112100000D01*
X88406162Y-110977010D02*
X101089838Y-110977010D01*
X116983656Y-112100000D02*
X124200000Y-119316344D01*
X124200000Y-119316344D02*
X124200000Y-120800000D01*
X122950000Y-120150000D02*
X122950000Y-122050000D01*
X115277010Y-112477010D02*
X122950000Y-120150000D01*
X102056666Y-112477010D02*
X115277010Y-112477010D01*
X100933676Y-111354020D02*
X102056666Y-112477010D01*
X122950000Y-122050000D02*
X124200000Y-123300000D01*
X88562324Y-111354020D02*
X100933676Y-111354020D01*
X79672973Y-112581011D02*
X87335334Y-112581010D01*
X87335334Y-112581010D02*
X88562324Y-111354020D01*
X74881657Y-107789695D02*
X79672973Y-112581011D01*
X74570102Y-107789695D02*
X74881657Y-107789695D01*
X87491981Y-112958019D02*
X88718970Y-111731030D01*
X78293900Y-112958019D02*
X87491981Y-112958019D01*
X73996474Y-108660593D02*
X78293900Y-112958019D01*
X73996474Y-108236329D02*
X73996474Y-108660593D01*
X100777514Y-111731030D02*
X101900504Y-112854020D01*
X88718970Y-111731030D02*
X100777514Y-111731030D01*
X101900504Y-112854020D02*
X113704020Y-112854020D01*
X113704020Y-112854020D02*
X121650000Y-120800000D01*
X120400000Y-120250000D02*
X120400000Y-122050000D01*
X113497999Y-113347999D02*
X120400000Y-120250000D01*
X99797999Y-113347999D02*
X113497999Y-113347999D01*
X98558040Y-112108040D02*
X99797999Y-113347999D01*
X88875132Y-112108040D02*
X98558040Y-112108040D01*
X76470105Y-113335029D02*
X87648144Y-113335028D01*
X87648144Y-113335028D02*
X88875132Y-112108040D01*
X73401605Y-110266529D02*
X76470105Y-113335029D01*
X120400000Y-122050000D02*
X121650000Y-123300000D01*
X73401605Y-108654255D02*
X73401605Y-110266529D01*
X72849605Y-110247699D02*
X76313944Y-113712038D01*
X72849605Y-109350000D02*
X72849605Y-110247699D01*
X76313944Y-113712038D02*
X90912038Y-113712038D01*
X95452001Y-118252001D02*
X116652001Y-118252001D01*
X90912038Y-113712038D02*
X95452001Y-118252001D01*
X116652001Y-118252001D02*
X119150000Y-120750000D01*
X117850000Y-122050000D02*
X119150000Y-123350000D01*
X117850000Y-119983172D02*
X117850000Y-122050000D01*
X116495839Y-118629011D02*
X117850000Y-119983172D01*
X95295839Y-118629011D02*
X116495839Y-118629011D01*
X90755876Y-114089048D02*
X95295839Y-118629011D01*
X75910308Y-114089048D02*
X90755876Y-114089048D01*
X73035630Y-111214370D02*
X75910308Y-114089048D01*
X74649475Y-113361387D02*
X75754146Y-114466058D01*
X74402001Y-113361387D02*
X74649475Y-113361387D01*
X73195307Y-112154693D02*
X74402001Y-113361387D01*
X90599714Y-114466058D02*
X95139677Y-119006021D01*
X75754146Y-114466058D02*
X90599714Y-114466058D01*
X95139677Y-119006021D02*
X114806021Y-119006021D01*
X114806021Y-119006021D02*
X116600000Y-120800000D01*
X115250000Y-122000000D02*
X116600000Y-123350000D01*
X115250000Y-120033040D02*
X115250000Y-122000000D01*
X114716960Y-119500000D02*
X115250000Y-120033040D01*
X105885038Y-119500000D02*
X114716960Y-119500000D01*
X104983049Y-120401989D02*
X105885038Y-119500000D01*
X96002473Y-120401989D02*
X104983049Y-120401989D01*
X90450484Y-114850000D02*
X96002473Y-120401989D01*
X73885034Y-114850000D02*
X90450484Y-114850000D01*
X71200000Y-112164966D02*
X73885034Y-114850000D01*
X71200000Y-111650000D02*
X71200000Y-112164966D01*
X104300000Y-88250000D02*
X104300000Y-84697990D01*
X104600000Y-88550000D02*
X104300000Y-88250000D01*
X103065038Y-84450000D02*
X103600000Y-84450000D01*
X98100000Y-79484962D02*
X103065038Y-84450000D01*
X98100000Y-78950000D02*
X98100000Y-79484962D01*
X103952001Y-84097999D02*
X103600000Y-84450000D01*
X105564961Y-84097999D02*
X103952001Y-84097999D01*
X126497999Y-89547999D02*
X109783037Y-89547999D01*
X127000000Y-90050000D02*
X126497999Y-89547999D01*
X109783037Y-89547999D02*
X106500000Y-86264962D01*
X106500000Y-86264962D02*
X106500000Y-85033038D01*
X106500000Y-85033038D02*
X105564961Y-84097999D01*
X83345000Y-69325000D02*
X87700000Y-64970000D01*
X77725000Y-69325000D02*
X83345000Y-69325000D01*
X63700000Y-139000000D02*
X84650000Y-118050000D01*
X57000000Y-139000000D02*
X63700000Y-139000000D01*
X67700000Y-113800000D02*
X55200000Y-113800000D01*
X76500000Y-122600000D02*
X67700000Y-113800000D01*
X72700000Y-125800000D02*
X73700000Y-124800000D01*
X64700000Y-125800000D02*
X72700000Y-125800000D01*
X61199983Y-122299983D02*
X64700000Y-125800000D01*
X58400017Y-122299983D02*
X61199983Y-122299983D01*
X96800000Y-117600000D02*
X97300000Y-117100000D01*
X97300000Y-117100000D02*
X104900000Y-117100000D01*
X109260186Y-99522988D02*
X79339951Y-99522989D01*
X76616962Y-96800000D02*
X73200000Y-96800000D01*
X79339951Y-99522989D02*
X76616962Y-96800000D01*
X110256163Y-98527011D02*
X109260186Y-99522988D01*
X133004030Y-98527011D02*
X110256163Y-98527011D01*
X143845019Y-109368000D02*
X133004030Y-98527011D01*
X145830000Y-109368000D02*
X143845019Y-109368000D01*
X147100000Y-108098000D02*
X145830000Y-109368000D01*
X76500136Y-96150000D02*
X73700000Y-96150000D01*
X109104022Y-99145978D02*
X79496114Y-99145978D01*
X79496114Y-99145978D02*
X76500136Y-96150000D01*
X110100000Y-98150000D02*
X109104022Y-99145978D01*
X134612000Y-98150000D02*
X110100000Y-98150000D01*
X144560000Y-108098000D02*
X134612000Y-98150000D01*
X77549999Y-100749999D02*
X74400000Y-97600000D01*
X109900001Y-100749999D02*
X77549999Y-100749999D01*
X110900000Y-99750000D02*
X109900001Y-100749999D01*
X124033172Y-99750000D02*
X110900000Y-99750000D01*
X142583172Y-118300000D02*
X124033172Y-99750000D01*
X146243000Y-118300000D02*
X142583172Y-118300000D01*
X147100000Y-117443000D02*
X146243000Y-118300000D01*
X147100000Y-115718000D02*
X147100000Y-117443000D01*
M02*
